<?xml version="1.0" encoding="UTF-8"?>
<!DOCTYPE svg PUBLIC "-//W3C//DTD SVG 1.1//EN" "http://www.w3.org/Graphics/SVG/1.1/DTD/svg11.dtd">
<!-- Creator: CorelDRAW X8 -->
<svg xmlns="http://www.w3.org/2000/svg" xml:space="preserve" width="7.1118mm" height="7.1118mm" version="1.1" style="shape-rendering:geometricPrecision; text-rendering:geometricPrecision; image-rendering:optimizeQuality; fill-rule:evenodd; clip-rule:evenodd"
viewBox="0 0 711 711"
 xmlns:xlink="http://www.w3.org/1999/xlink">
 <defs>
  <style type="text/css">
   <![CDATA[
    .fil0 {fill:black}
   ]]>
  </style>
 </defs>
 <g id="Layer_x0020_1">
  <metadata id="CorelCorpID_0Corel-Layer"/>
  <g id="_1949940722256">
   <g>
    <path class="fil0" d="M610 565l-507 0c-18,0 -35,-10 -44,-26 -10,-16 -7,-35 2,-52l26 -40c42,-63 63,-136 63,-211 0,-87 57,-167 139,-195 14,-26 40,-40 68,-40 28,0 54,14 68,40 82,28 139,108 139,195 0,75 21,148 63,211l26 40c9,17 11,36 2,52 -7,16 -26,26 -45,26z"/>
   </g>
   <path class="fil0" d="M242 612c12,54 59,94 115,94 56,0 103,-40 115,-94l-230 0z"/>
  </g>
 </g>
</svg>
