<?xml version="1.0" encoding="UTF-8"?>
<!DOCTYPE svg PUBLIC "-//W3C//DTD SVG 1.1//EN" "http://www.w3.org/Graphics/SVG/1.1/DTD/svg11.dtd">
<!-- Creator: CorelDRAW X8 -->
<svg xmlns="http://www.w3.org/2000/svg" xml:space="preserve" width="6.5314mm" height="5.3542mm" version="1.1" style="shape-rendering:geometricPrecision; text-rendering:geometricPrecision; image-rendering:optimizeQuality; fill-rule:evenodd; clip-rule:evenodd"
viewBox="0 0 55 45"
 xmlns:xlink="http://www.w3.org/1999/xlink">
 <defs>
  <style type="text/css">
   <![CDATA[
    .fil0 {fill:#3D3D3D}
   ]]>
  </style>
 </defs>
 <g id="Layer_x0020_1">
  <metadata id="CorelCorpID_0Corel-Layer"/>
  <g id="_2250590321616">
   <g id="Layer_2" data-name="Layer 2">
    <g id="Layer_1-2" data-name="Layer 1">
     <g id="Group_70" data-name="Group 70">
      <path id="Path_55" class="fil0" d="M38 33l0 3 -26 0c0,0 0,0 0,0 -1,0 -2,0 -2,0l-6 5 0 -37 34 0 0 11 4 -4 0 -8c0,-2 -2,-3 -3,-3l-36 0c0,0 0,0 0,0 -2,0 -3,1 -3,3l0 0 0 39c0,1 1,2 2,3 0,0 1,0 1,0 0,0 0,0 0,0 0,0 0,0 0,0 1,0 2,0 2,0l7 -6 27 0c1,0 3,-1 3,-3l0 0 0 -6 -3 2c0,1 0,1 -1,1l0 0z" data-name="Path 55"/>
      <path id="Path_56" class="fil0" d="M11 12l20 0c0,0 0,0 0,0 1,0 2,0 2,-1l0 0 0 0c0,-1 -1,-2 -2,-2l-20 0c-1,0 -2,1 -2,2 0,1 1,1 2,1 0,0 0,0 0,0l0 0z" data-name="Path 56"/>
      <path id="Path_57" class="fil0" d="M33 19c0,-1 -1,-1 -2,-1l-20 0c-1,0 -2,0 -2,1 0,0 0,0 0,0 0,1 1,2 2,2l20 0c0,0 0,0 0,0 1,0 2,0 2,-1l0 -1z" data-name="Path 57"/>
      <path id="Path_58" class="fil0" d="M9 28c0,0 0,0 0,0 0,1 1,2 2,2l17 0 1 -4 -18 0c-1,0 -2,1 -2,2l0 0z" data-name="Path 58"/>
      <rect id="Rectangle_30" class="fil0" transform="matrix(0.0207319 -0.0231548 0.0231548 0.0207319 34.9701 22.5488)" width="523" height="224" data-name="Rectangle 30"/>
      <path id="Path_59" class="fil0" d="M55 9l-4 -3c0,0 0,0 -1,0 0,0 0,0 0,0l0 0 -2 3 5 4 2 -2c0,0 0,0 0,-1 0,0 0,0 0,-1l0 0z" data-name="Path 59"/>
      <path id="Path_60" class="fil0" d="M32 32l5 -1c0,0 0,0 0,-1l2 -1 -6 -5 -1 2c0,0 0,0 0,0l-1 5c0,0 0,0 0,0 0,0 0,1 1,1 0,0 0,0 0,0 0,0 0,0 0,0l0 0z" data-name="Path 60"/>
     </g>
    </g>
   </g>
  </g>
 </g>
</svg>
