<svg xmlns="http://www.w3.org/2000/svg" viewBox="0 0 18.99 19.03"><defs><style>.cls-1{fill:#3d3d3d;}</style></defs><title>Asset 7</title><g id="Layer_2" data-name="Layer 2"><g id="Layer_1-2" data-name="Layer 1"><g id="noun_Globe_4405182" data-name="noun Globe 4405182"><g id="Group_80" data-name="Group 80"><path id="Path_79" data-name="Path 79" class="cls-1" d="M5.89,5.79H.72A9.5,9.5,0,0,1,9.31,0C7.54.15,6.38,2.66,5.89,5.79Z"/><path id="Path_80" data-name="Path 80" class="cls-1" d="M11.54,5.79H7.42c.46-2.67,1.38-4.3,2.06-4.3S11.07,3.11,11.54,5.79Z"/><path id="Path_81" data-name="Path 81" class="cls-1" d="M18.26,5.79H13.07C12.57,2.66,11.42.15,9.65,0A9.53,9.53,0,0,1,18.26,5.79Z"/><path id="Path_82" data-name="Path 82" class="cls-1" d="M5.71,11.7H.26a9.39,9.39,0,0,1,0-4.41H5.71A25,25,0,0,0,5.71,11.7Z"/><path id="Path_83" data-name="Path 83" class="cls-1" d="M9.31,19a9.53,9.53,0,0,1-8.59-5.8H5.89C6.38,16.34,7.54,18.85,9.31,19Z"/><path id="Path_84" data-name="Path 84" class="cls-1" d="M7.41,13.2h4.14c-.47,2.69-1.4,4.31-2.07,4.31S7.88,15.89,7.41,13.2Z"/><path id="Path_85" data-name="Path 85" class="cls-1" d="M11.85,9.5a20.24,20.24,0,0,1-.1,2.2H7.26c-.07-.73-.1-1.47-.1-2.2a18.07,18.07,0,0,1,.1-2.21h4.53A20.39,20.39,0,0,1,11.85,9.5Z"/><path id="Path_86" data-name="Path 86" class="cls-1" d="M13.07,13.2h5.19A9.52,9.52,0,0,1,9.67,19C11.42,18.85,12.57,16.34,13.07,13.2Z"/><path id="Path_87" data-name="Path 87" class="cls-1" d="M19,9.5a9.59,9.59,0,0,1-.26,2.2H13.26c.06-.72.1-1.46.1-2.2a16.28,16.28,0,0,0-.1-2.21h5.47A8.68,8.68,0,0,1,19,9.5Z"/></g></g></g></g></svg>