<svg xmlns="http://www.w3.org/2000/svg" viewBox="0 0 17.51 20.83"><defs><style>.cls-1{fill:#3d3d3d;}</style></defs><title>Asset 8</title><g id="Layer_2" data-name="Layer 2"><g id="Layer_1-2" data-name="Layer 1"><g id="Group_82" data-name="Group 82"><path id="Path_92" data-name="Path 92" class="cls-1" d="M14.89,0H2.63A2.63,2.63,0,0,0,0,2.63v12A2.65,2.65,0,0,0,2.63,17.3H3.78a4.86,4.86,0,0,1-.35,1.12A1.71,1.71,0,0,0,5,20.83a2,2,0,0,0,.79-.17A12.22,12.22,0,0,0,9.64,17.3h5.23a2.66,2.66,0,0,0,2.64-2.64v-12A2.57,2.57,0,0,0,15,0h0Zm.89,14.66a.94.94,0,0,1-.93.92H9.25a.85.85,0,0,0-.68.33A11.44,11.44,0,0,1,5,19.12a7,7,0,0,0,.59-2.66.84.84,0,0,0-.24-.62.81.81,0,0,0-.6-.18H2.63a.94.94,0,0,1-.92-.93V2.66a.92.92,0,0,1,.92-.92H14.92a.92.92,0,0,1,.92.92v12Z"/><path id="Path_93" data-name="Path 93" class="cls-1" d="M8.78,3.66A3.3,3.3,0,0,0,5.4,6.59a.59.59,0,0,0,.13.48A.58.58,0,0,0,6,7.29h.79a.62.62,0,0,0,.59-.51,1.47,1.47,0,0,1,1.75-1.1,1.45,1.45,0,0,1,.89.6,1,1,0,0,1-.07,1,2.51,2.51,0,0,1-.7.64,2.71,2.71,0,0,0-1.32,2.33.56.56,0,0,0,.16.46.57.57,0,0,0,.44.2h.74a.63.63,0,0,0,.62-.55.82.82,0,0,1,.48-.81,4.67,4.67,0,0,0,1.16-1.1,3,3,0,0,0,.25-3.12A3.19,3.19,0,0,0,8.78,3.66Z"/><circle id="Ellipse_24" data-name="Ellipse 24" class="cls-1" cx="8.9" cy="12.85" r="1.19"/></g></g></g></svg>