<svg xmlns="http://www.w3.org/2000/svg" viewBox="0 0 19.48 19.48"><defs><style>.cls-1{fill:#3d3d3d;}</style></defs><title>Asset 9</title><g id="Layer_2" data-name="Layer 2"><g id="Layer_1-2" data-name="Layer 1"><path id="noun_Favorite_89642" data-name="noun Favorite 89642" class="cls-1" d="M9.74,0a9.74,9.74,0,1,0,9.74,9.74h0A9.72,9.72,0,0,0,9.77,0Zm6.34,8.52a1.11,1.11,0,0,1-.37.78l-2.25,2.18L14,14.84c.11.78-.76,1.21-1.51.8L9.74,14.17,7,15.62a1,1,0,0,1-1.36-.4,1,1,0,0,1-.11-.6L6,11.48c-2-2-2.27-2.2-2.27-2.2a1.21,1.21,0,0,1-.34-.76,1,1,0,0,1,.91-1l3.13-.45L8.85,4.24a1,1,0,0,1,.91-.63,1,1,0,0,1,.91.65l1.41,2.79,3.09.5a1,1,0,0,1,.88,1Z"/></g></g></svg>