<?xml version="1.0" encoding="UTF-8"?>
<!DOCTYPE svg PUBLIC "-//W3C//DTD SVG 1.1//EN" "http://www.w3.org/Graphics/SVG/1.1/DTD/svg11.dtd">
<!-- Creator: CorelDRAW X8 -->
<svg xmlns="http://www.w3.org/2000/svg" xml:space="preserve" width="6.1856mm" height="6.6989mm" version="1.1" style="shape-rendering:geometricPrecision; text-rendering:geometricPrecision; image-rendering:optimizeQuality; fill-rule:evenodd; clip-rule:evenodd"
viewBox="0 0 595 645"
 xmlns:xlink="http://www.w3.org/1999/xlink">
 <defs>
  <style type="text/css">
   <![CDATA[
    .fil0 {fill:#D59710}
   ]]>
  </style>
 </defs>
 <g id="Layer_x0020_1">
  <metadata id="CorelCorpID_0Corel-Layer"/>
  <path class="fil0" d="M554 645l-149 0c-23,0 -41,-18 -41,-41l0 -149c0,-19 -15,-33 -33,-33l-66 0c-18,0 -34,14 -34,33l0 149c0,23 -18,41 -41,41l-149 0c-23,0 -41,-18 -41,-41l0 -316c0,-38 17,-74 48,-98l235 -185c9,-7 22,-7 31,0l235 185c29,24 46,60 46,98l0 316c0,23 -18,41 -41,41l0 0z"/>
 </g>
</svg>
