<?xml version="1.0" encoding="UTF-8"?>
<!DOCTYPE svg PUBLIC "-//W3C//DTD SVG 1.1//EN" "http://www.w3.org/Graphics/SVG/1.1/DTD/svg11.dtd">
<!-- Creator: CorelDRAW X8 -->
<svg xmlns="http://www.w3.org/2000/svg" xml:space="preserve" width="7.1118mm" height="7.1118mm" version="1.1" style="shape-rendering:geometricPrecision; text-rendering:geometricPrecision; image-rendering:optimizeQuality; fill-rule:evenodd; clip-rule:evenodd"
viewBox="0 0 711 711"
 xmlns:xlink="http://www.w3.org/1999/xlink">
 <defs>
  <style type="text/css">
   <![CDATA[
    .fil0 {fill:#8B8B8C}
   ]]>
  </style>
 </defs>
 <g id="Layer_x0020_1">
  <metadata id="CorelCorpID_0Corel-Layer"/>
  <path class="fil0" d="M636 708l-163 0c-25,0 -45,-20 -45,-45l0 -163c0,-20 -16,-36 -36,-36l-72 0c-20,0 -37,16 -37,36l0 163c0,25 -20,45 -45,45l-163 0c-25,0 -45,-20 -45,-45l0 -345c0,-42 19,-81 52,-107l257 -202c10,-8 24,-8 34,0l257 202c32,26 51,65 51,107l0 345c0,25 -20,45 -45,45l0 0z"/>
 </g>
</svg>
