<?xml version="1.0" encoding="UTF-8"?>
<!DOCTYPE svg PUBLIC "-//W3C//DTD SVG 1.1//EN" "http://www.w3.org/Graphics/SVG/1.1/DTD/svg11.dtd">
<!-- Creator: CorelDRAW X8 -->
<svg xmlns="http://www.w3.org/2000/svg" xml:space="preserve" width="7.0118mm" height="7.0118mm" version="1.1" style="shape-rendering:geometricPrecision; text-rendering:geometricPrecision; image-rendering:optimizeQuality; fill-rule:evenodd; clip-rule:evenodd"
viewBox="0 0 701 701"
 xmlns:xlink="http://www.w3.org/1999/xlink">
 <defs>
  <style type="text/css">
   <![CDATA[
    .fil1 {fill:#8B8B8C}
    .fil0 {fill:white}
   ]]>
  </style>
 </defs>
 <g id="Layer_x0020_1">
  <metadata id="CorelCorpID_0Corel-Layer"/>
  <g id="_2375218967312">
   <path class="fil0" d="M89 583l49 46c10,7 15,12 27,20l15 8c36,22 85,36 127,42 23,3 67,2 91,0 49,-6 100,-27 140,-52 23,-14 64,-47 78,-67 0,-26 0,-52 0,-78 0,-37 -4,-16 -6,-35 -3,-53 -23,-103 -52,-140 -109,-141 -315,-133 -415,2 -32,44 -46,84 -51,143 0,8 -3,7 -3,16l0 95z"/>
   <path class="fil1" d="M89 583l0 -95c0,-9 3,-8 3,-16 5,-59 19,-99 51,-143 100,-135 306,-143 415,-2 29,37 49,87 52,140 2,19 6,-2 6,35 0,26 0,52 0,78 19,-16 49,-73 60,-97 3,-8 6,-15 8,-24 2,-5 3,-9 4,-12 14,-45 16,-98 11,-145 -4,-34 -19,-78 -35,-109 -11,-23 -22,-38 -36,-58 -5,-6 -10,-11 -15,-18 -25,-31 -72,-64 -108,-82 -12,-6 -33,-15 -46,-18 -43,-13 -61,-17 -111,-17l-44 2c-7,1 -9,2 -14,3 -23,4 -27,5 -51,12 -15,5 -31,12 -44,19 -15,7 -27,15 -41,24 -19,12 -22,17 -36,27 -7,6 -26,25 -32,33 -10,14 -14,16 -27,35 -14,21 -24,39 -33,62 -13,31 -14,44 -21,76 -4,18 -6,69 -4,90 1,5 1,10 2,15l4 26c8,42 30,88 53,123l21 28c1,2 2,2 3,4l5 4z"/>
   <path class="fil0" d="M442 139c-15,23 -33,40 -64,43 -85,5 -118,-105 -48,-148 7,-3 12,-6 19,-8 7,-2 19,-2 24,-4 -86,-18 -148,74 -101,146 30,46 99,58 144,15 8,-7 25,-29 26,-44z"/>
  </g>
 </g>
</svg>
