<?xml version="1.0" encoding="UTF-8"?>
<!DOCTYPE svg PUBLIC "-//W3C//DTD SVG 1.1//EN" "http://www.w3.org/Graphics/SVG/1.1/DTD/svg11.dtd">
<!-- Creator: CorelDRAW X8 -->
<svg xmlns="http://www.w3.org/2000/svg" xml:space="preserve" width="6.0827mm" height="7.0517mm" version="1.1" style="shape-rendering:geometricPrecision; text-rendering:geometricPrecision; image-rendering:optimizeQuality; fill-rule:evenodd; clip-rule:evenodd"
viewBox="0 0 611 708"
 xmlns:xlink="http://www.w3.org/1999/xlink">
 <defs>
  <style type="text/css">
   <![CDATA[
    .fil0 {fill:#D59710}
   ]]>
  </style>
 </defs>
 <g id="Layer_x0020_1">
  <metadata id="CorelCorpID_0Corel-Layer"/>
  <g id="_1949940722256">
   <g>
    <path class="fil0" d="M560 567l-510 0c-18,0 -35,-10 -44,-27 -10,-16 -7,-35 2,-52l26 -40c43,-63 64,-137 64,-212 0,-87 57,-168 139,-196 14,-26 41,-40 69,-40 28,0 54,14 68,40 82,28 140,109 140,196 0,75 21,149 63,212l26 40c9,17 11,36 2,52 -7,17 -26,27 -45,27l0 0z"/>
   </g>
   <path class="fil0" d="M190 614c12,54 59,94 116,94 56,0 103,-40 115,-94l-231 0z"/>
  </g>
 </g>
</svg>
