<?xml version="1.0" encoding="UTF-8"?>
<!DOCTYPE svg PUBLIC "-//W3C//DTD SVG 1.1//EN" "http://www.w3.org/Graphics/SVG/1.1/DTD/svg11.dtd">
<!-- Creator: CorelDRAW X8 -->
<svg xmlns="http://www.w3.org/2000/svg" xml:space="preserve" width="7.3477mm" height="7.3483mm" version="1.1" style="shape-rendering:geometricPrecision; text-rendering:geometricPrecision; image-rendering:optimizeQuality; fill-rule:evenodd; clip-rule:evenodd"
viewBox="0 0 711 711"
 xmlns:xlink="http://www.w3.org/1999/xlink">
 <defs>
  <style type="text/css">
   <![CDATA[
    .fil1 {fill:#D59710}
    .fil0 {fill:white}
   ]]>
  </style>
 </defs>
 <g id="Layer_x0020_1">
  <metadata id="CorelCorpID_0Corel-Layer"/>
  <g id="_2375219025520">
   <path class="fil0" d="M90 591l50 47c10,7 15,12 27,20l15 8c37,22 86,36 129,43 23,4 68,2 92,0 50,-7 102,-28 142,-53 23,-14 65,-48 79,-68 0,-26 0,-53 0,-79 0,-38 -4,-16 -6,-36 -3,-53 -23,-104 -53,-142 -110,-142 -319,-134 -420,2 -33,45 -47,86 -52,145 0,9 -3,8 -3,17l0 96 0 0z"/>
   <path class="fil1" d="M90 591l0 -96c0,-9 3,-8 3,-17 5,-59 19,-100 52,-145 101,-136 310,-144 420,-2 30,38 50,89 53,142 2,20 6,-2 6,36 0,26 0,53 0,79 19,-16 50,-74 61,-98 3,-9 6,-16 9,-25 1,-5 2,-9 3,-12 14,-46 16,-99 11,-147 -4,-34 -19,-79 -35,-110 -11,-24 -22,-39 -37,-59 -5,-6 -10,-11 -15,-18 -25,-32 -73,-65 -109,-84 -13,-6 -34,-15 -47,-18 -44,-13 -62,-17 -112,-17l-45 2c-7,1 -9,2 -14,3 -24,4 -28,5 -52,12 -15,5 -31,12 -45,19 -15,8 -27,16 -41,25 -19,12 -22,17 -37,27 -7,6 -26,26 -32,34 -10,14 -14,16 -27,35 -15,21 -25,40 -34,63 -13,31 -14,45 -21,77 -4,18 -6,70 -4,91 1,5 1,10 2,15l4 27c8,42 30,89 54,124l21 29c1,2 2,2 3,4l5 4 0 0z"/>
   <path class="fil0" d="M448 141c-15,23 -34,40 -65,43 -86,6 -120,-106 -49,-150 7,-3 12,-6 20,-8 7,-2 19,-2 24,-4 -87,-18 -150,75 -103,148 31,47 101,59 146,15 10,-7 26,-29 27,-44l0 0z"/>
  </g>
 </g>
</svg>
