<?xml version="1.0" encoding="UTF-8"?>
<!DOCTYPE svg PUBLIC "-//W3C//DTD SVG 1.1//EN" "http://www.w3.org/Graphics/SVG/1.1/DTD/svg11.dtd">
<!-- Creator: CorelDRAW X8 -->
<svg xmlns="http://www.w3.org/2000/svg" xml:space="preserve" width="6.988mm" height="6.9863mm" version="1.1" style="shape-rendering:geometricPrecision; text-rendering:geometricPrecision; image-rendering:optimizeQuality; fill-rule:evenodd; clip-rule:evenodd"
viewBox="0 0 119 118"
 xmlns:xlink="http://www.w3.org/1999/xlink">
 <defs>
  <style type="text/css">
   <![CDATA[
    .fil3 {fill:#3B0101}
    .fil8 {fill:#565859}
    .fil12 {fill:#7B0101}
    .fil11 {fill:#9C0201}
    .fil5 {fill:#A9A6A6}
    .fil1 {fill:#C10E05}
    .fil6 {fill:#D7201C}
    .fil0 {fill:#F22A2A}
    .fil4 {fill:#F47473}
    .fil2 {fill:#F4F2F2}
    .fil10 {fill:#F58E91}
    .fil9 {fill:#FA0B0B}
    .fil7 {fill:#FA4B4B}
   ]]>
  </style>
 </defs>
 <g id="Layer_x0020_1">
  <metadata id="CorelCorpID_0Corel-Layer"/>
  <g id="_2375118645504">
   <polygon class="fil0" points="41,49 44,49 44,49 45,49 45,50 45,50 45,51 45,51 45,51 45,51 45,52 46,52 46,52 46,52 46,53 46,53 46,54 46,54 46,54 47,54 47,55 47,55 47,56 47,56 47,56 47,56 47,57 48,57 48,57 48,57 48,58 48,58 48,59 48,59 48,59 49,59 49,60 49,60 49,60 49,60 49,60 50,60 50,61 52,61 52,62 54,62 54,62 54,62 54,63 55,63 55,64 55,64 55,70 55,70 55,49 59,49 59,49 60,49 60,50 60,50 60,50 60,50 60,51 60,51 60,51 61,51 61,51 61,51 61,52 61,52 61,52 61,52 61,53 62,53 62,53 62,53 62,53 62,53 62,54 62,54 62,54 63,54 63,55 63,55 63,55 63,55 63,56 63,56 63,56 64,56 64,56 64,56 64,57 64,57 64,57 64,57 64,58 65,58 65,58 65,58 65,58 65,58 65,59 65,59 65,59 65,59 65,59 66,59 66,60 66,60 66,60 66,60 66,61 66,61 66,61 67,61 67,61 67,61 67,62 67,62 67,62 67,62 67,63 68,63 68,49 72,49 72,70 72,70 72,54 73,54 73,54 76,54 76,56 76,56 76,49 80,49 80,70 77,70 77,71 77,71 77,71 77,71 77,71 77,71 77,71 77,71 77,72 77,72 77,72 76,72 76,72 76,72 76,73 76,73 76,73 75,73 75,73 75,73 75,74 75,74 75,74 74,74 74,74 74,74 74,75 74,75 74,75 73,75 73,76 72,76 72,76 72,76 72,77 72,77 72,77 71,77 71,77 71,77 71,77 71,77 71,77 70,77 70,78 69,78 69,78 67,78 67,79 66,79 66,79 65,79 65,79 65,79 65,80 64,80 64,80 63,80 63,80 56,80 56,80 55,80 55,80 54,80 54,79 53,79 53,79 52,79 52,78 50,78 50,78 49,78 49,78 49,78 49,77 49,77 49,77 47,77 47,77 47,77 47,76 47,76 47,76 47,76 47,76 46,76 46,75 46,75 46,75 45,75 45,75 45,75 45,74 45,74 45,74 45,74 45,74 44,74 44,73 44,73 44,73 43,73 43,73 43,73 43,73 43,73 43,72 43,72 43,72 43,72 43,71 43,71 43,71 43,71 43,71 42,71 42,71 42,71 42,71 41,71 41,71 41,71 41,70 41,70 41,68 40,68 40,68 39,68 39,66 39,66 39,66 39,66 39,65 38,65 38,66 38,66 38,67 38,67 38,67 37,67 37,68 37,68 37,69 37,69 37,69 37,69 37,70 32,70 32,70 32,70 32,69 32,69 32,68 33,68 33,68 33,68 33,67 33,67 33,67 33,67 33,66 34,66 34,65 34,65 34,65 34,65 34,64 34,64 34,63 35,63 35,63 35,63 35,62 35,62 35,61 35,61 35,61 36,61 36,60 36,60 36,60 36,60 36,59 36,59 36,59 37,59 37,58 37,58 37,57 37,57 37,57 37,57 37,56 38,56 38,55 38,55 38,55 38,55 38,54 38,54 38,54 39,54 39,53 39,53 39,52 39,52 39,52 39,52 39,51 40,51 40,50 40,50 40,50 40,50 40,49 41,49 41,49 41,49 41,49 40,49 40,48 40,48 40,48 39,48 39,48 38,48 38,48 37,48 37,48 37,48 37,49 37,49 37,49 36,49 36,49 36,49 36,50 34,50 34,50 33,50 33,50 33,50 33,51 33,51 33,51 32,51 32,52 32,52 32,52 32,52 32,52 32,52 32,53 32,53 32,54 33,54 33,57 32,57 32,58 32,58 32,59 32,59 32,59 32,59 32,59 32,59 32,60 31,60 31,60 31,60 31,60 31,60 31,61 31,61 31,61 30,61 30,61 30,61 30,61 29,61 29,62 29,62 29,62 27,62 27,62 21,62 21,70 22,70 22,71 21,71 21,71 22,71 22,71 22,71 22,70 22,70 22,70 23,70 23,71 23,71 23,72 23,72 23,73 24,73 24,74 24,74 24,76 25,76 25,76 25,76 25,77 25,77 25,77 26,77 26,78 26,78 26,78 26,78 26,80 27,80 27,80 27,80 27,80 28,80 28,82 29,82 29,82 29,82 29,82 29,82 29,83 30,83 30,83 30,83 30,85 31,85 31,85 31,85 31,86 31,86 31,86 32,86 32,86 32,86 32,87 32,87 32,87 34,87 34,88 35,88 35,88 35,88 35,89 35,89 35,89 35,89 35,89 37,89 37,90 37,90 37,90 37,90 37,90 37,90 37,91 38,91 38,91 38,91 38,92 40,92 40,93 42,93 42,93 44,93 44,95 46,95 46,95 48,95 48,96 52,96 52,97 54,97 54,98 56,98 56,97 58,97 58,98 62,98 62,97 64,97 64,98 65,98 65,97 67,97 67,96 71,96 71,96 72,96 72,95 73,95 73,95 73,95 73,95 74,95 74,94 75,94 75,94 75,94 75,93 77,93 77,93 78,93 78,92 79,92 79,92 79,92 79,91 80,91 80,91 81,91 81,91 81,91 81,91 82,91 82,90 82,90 82,90 82,90 82,90 82,90 82,90 83,90 83,89 83,89 83,89 84,89 84,89 84,89 84,88 84,88 84,88 84,88 84,88 85,88 85,88 86,88 86,87 86,87 86,87 86,87 86,87 86,87 86,87 86,87 86,86 87,86 87,86 87,86 87,86 88,86 88,85 88,85 88,85 88,85 88,85 89,85 89,84 89,84 89,83 89,83 89,83 89,83 89,83 90,83 90,83 90,83 90,82 90,82 90,82 90,82 90,82 91,82 91,82 91,82 91,82 92,82 92,80 92,80 92,80 93,80 93,80 93,80 93,78 94,78 94,76 94,76 94,74 95,74 95,76 95,76 95,74 96,74 96,72 96,72 96,72 96,72 96,71 97,71 97,71 96,71 96,71 97,71 97,71 97,71 97,70 96,70 96,71 96,71 96,70 96,70 96,70 96,70 96,70 96,70 96,70 95,70 95,70 91,70 91,70 90,70 90,70 89,70 89,69 89,69 89,69 88,69 88,69 88,69 88,69 87,69 87,68 87,68 87,68 87,68 87,68 86,68 86,68 86,68 86,67 86,67 86,67 86,67 86,67 86,67 86,66 85,66 85,66 85,66 85,66 85,66 85,65 85,65 85,65 84,65 84,64 84,64 84,63 84,63 84,62 84,62 84,57 84,57 84,56 84,56 84,55 84,55 84,54 85,54 85,54 85,54 85,53 85,53 85,53 85,53 85,53 86,53 86,52 86,52 86,52 86,52 86,51 86,51 86,51 86,51 86,51 85,51 85,50 85,50 85,50 83,50 83,49 81,49 81,49 79,49 79,49 77,49 77,48 77,48 77,48 77,48 77,48 77,48 77,48 76,48 76,47 75,47 75,47 74,47 74,47 73,47 73,47 72,47 72,46 72,46 72,46 71,46 71,46 71,46 71,46 70,46 70,46 70,46 70,46 69,46 69,46 69,46 69,46 68,46 68,45 64,45 64,45 56,45 56,45 51,45 51,46 50,46 50,46 50,46 50,46 49,46 49,46 49,46 49,46 47,46 47,46 46,46 46,47 46,47 46,47 45,47 45,47 44,47 44,47 43,47 43,48 43,48 43,48 42,48 42,48 41,48 41,48 41,48 41,49 41,49 "/>
   <polygon class="fil1" points="16,78 16,77 16,77 16,78 16,78 16,78 17,78 17,78 17,78 17,79 17,79 17,79 17,79 17,79 18,79 18,80 18,80 18,80 18,80 18,80 18,80 18,81 19,81 19,81 19,81 19,81 19,81 19,81 19,81 19,82 20,82 20,82 20,82 20,82 20,82 20,83 20,83 20,83 21,83 21,83 21,83 21,83 21,83 21,84 21,84 21,84 22,84 22,84 22,84 22,84 22,84 22,85 22,85 22,85 23,85 23,85 23,85 23,86 23,86 23,86 24,86 24,86 24,86 24,87 25,87 25,87 25,87 25,87 25,87 25,88 26,88 26,88 26,88 26,87 26,87 26,87 25,87 25,86 25,86 25,86 26,86 26,86 24,86 24,84 24,84 24,83 24,83 24,82 24,82 24,82 23,82 23,81 23,81 23,81 23,81 23,80 22,80 22,80 22,80 22,80 22,80 22,79 22,79 22,79 21,79 21,78 21,78 21,78 21,78 21,77 21,77 21,77 20,77 20,76 20,76 20,75 20,75 20,75 20,75 20,74 19,74 19,74 19,74 19,73 19,73 19,72 19,72 19,72 18,72 18,72 18,72 18,71 18,71 18,71 18,71 18,71 18,71 18,71 18,71 18,70 17,70 17,49 25,49 25,48 25,48 25,47 25,47 25,46 25,46 25,39 25,39 25,38 25,38 25,37 25,37 25,36 26,36 26,35 26,35 26,35 26,35 26,34 26,34 26,33 27,33 27,33 27,33 27,32 27,32 27,32 27,32 27,31 28,31 28,31 28,31 28,31 28,31 28,30 28,30 28,30 29,30 29,29 29,29 29,29 29,29 29,29 29,29 29,29 30,29 30,28 30,28 30,28 30,28 30,28 30,28 30,27 31,27 31,27 31,27 31,27 31,27 31,27 31,27 31,26 32,26 32,26 32,26 32,26 32,26 32,26 32,26 32,25 32,25 32,25 33,25 33,25 33,25 33,25 33,25 33,24 33,24 33,24 34,24 34,24 34,24 34,24 34,24 34,23 35,23 35,23 35,23 35,23 35,23 35,23 36,23 36,22 36,22 36,22 36,22 36,22 37,22 37,22 37,22 37,21 38,21 38,21 38,21 38,21 38,21 38,21 39,21 39,20 39,20 39,20 40,20 40,20 40,20 40,20 41,20 41,19 41,19 41,19 42,19 42,19 42,19 42,19 43,19 43,18 43,18 43,18 44,18 44,18 45,18 45,18 45,18 45,17 46,17 46,17 47,17 47,17 48,17 48,17 49,17 49,16 50,16 50,16 51,16 51,16 53,16 53,16 55,16 55,15 64,15 64,16 65,16 65,16 67,16 67,16 68,16 68,16 69,16 69,17 70,17 70,17 71,17 71,17 72,17 72,17 73,17 73,18 73,18 73,18 74,18 74,18 75,18 75,18 75,18 75,19 76,19 76,19 76,19 76,19 77,19 77,19 77,19 77,20 78,20 78,20 78,20 78,20 79,20 79,20 79,20 79,21 79,21 79,21 80,21 80,21 80,21 80,21 81,21 81,22 81,22 81,22 81,22 81,22 82,22 82,22 82,22 82,23 83,23 83,23 83,23 83,23 83,23 83,23 84,23 84,24 84,24 84,24 84,24 84,24 84,24 84,24 85,24 85,25 85,25 85,25 85,25 85,25 86,25 86,25 86,25 86,26 86,26 86,26 86,26 86,26 86,26 86,26 87,26 87,27 87,27 87,27 87,27 87,27 87,27 87,28 88,28 88,28 88,28 88,28 88,28 88,28 88,28 88,29 89,29 89,29 89,29 89,29 89,29 89,29 90,29 90,30 90,30 90,29 90,29 90,29 91,29 91,30 91,30 91,30 92,30 92,32 93,32 93,33 93,33 93,33 94,33 94,34 95,34 95,35 95,35 95,35 95,35 95,36 95,36 95,37 96,37 96,37 96,37 96,37 96,37 96,38 96,38 96,38 97,38 97,38 97,38 97,40 97,40 97,40 98,40 98,42 99,42 99,44 99,44 99,45 100,45 100,45 100,45 100,46 100,46 100,48 101,48 101,50 101,50 101,52 102,52 102,53 102,53 102,52 102,52 102,53 103,53 103,54 102,54 102,54 102,54 102,55 102,55 102,55 103,55 103,56 102,56 102,58 103,58 103,60 102,60 102,62 103,62 103,62 102,62 102,62 103,62 103,63 102,63 102,63 103,63 103,64 102,64 102,64 103,64 103,64 102,64 102,65 103,65 103,65 102,65 102,66 102,66 102,66 102,66 102,66 101,66 101,68 101,68 101,69 101,69 101,69 102,69 102,71 102,71 102,71 101,71 101,72 101,72 101,73 101,73 101,74 101,74 101,74 100,74 100,74 100,74 100,75 100,75 100,76 100,76 100,77 100,77 100,78 100,78 100,78 99,78 99,79 99,79 99,79 99,79 99,80 98,80 98,80 98,80 98,81 97,81 97,81 97,81 97,81 97,81 97,82 97,82 97,82 97,82 97,83 96,83 96,83 96,83 96,84 96,84 96,84 96,84 96,84 95,84 95,85 95,85 95,85 94,85 94,86 94,86 94,86 94,86 94,86 94,86 94,87 93,87 93,87 93,87 93,87 92,87 92,87 92,87 92,88 93,88 93,88 92,88 92,88 92,88 92,89 91,89 91,90 90,90 90,90 90,90 90,90 90,90 90,91 89,91 89,91 89,91 89,91 88,91 88,92 88,92 88,91 88,91 88,92 87,92 87,92 88,92 88,92 88,92 88,92 88,92 88,93 88,93 88,92 87,92 87,93 87,93 87,93 87,93 87,93 86,93 86,94 86,94 86,94 86,94 86,94 85,94 85,95 86,95 86,95 86,95 86,95 86,95 86,94 87,94 87,94 87,94 87,94 88,94 88,94 88,94 88,93 88,93 88,93 89,93 89,93 89,93 89,93 90,93 90,92 90,92 90,92 90,92 90,92 91,92 91,92 91,92 91,91 91,91 91,91 92,91 92,91 92,91 92,91 92,91 92,90 93,90 93,90 93,90 93,90 93,90 93,90 93,90 93,89 94,89 94,89 94,89 94,89 94,89 94,89 95,89 95,88 95,88 95,88 95,88 95,88 95,88 95,88 96,88 96,88 96,88 96,87 96,87 96,87 96,87 96,87 97,87 97,87 97,87 97,86 97,86 97,86 97,86 97,86 97,86 97,86 98,86 98,85 98,85 98,85 98,85 98,85 98,85 98,84 99,84 99,84 99,84 99,84 99,84 99,83 99,83 99,83 100,83 100,83 100,83 100,83 100,83 100,84 99,84 99,84 99,84 99,84 99,84 99,85 99,85 99,85 98,85 98,85 98,85 98,86 98,86 98,86 98,86 98,86 97,86 97,87 97,87 97,87 97,87 97,87 97,87 97,88 97,88 97,88 96,88 96,88 96,88 96,88 96,88 96,89 96,89 96,89 95,89 95,89 95,89 95,90 95,90 95,90 95,90 95,90 94,90 94,90 94,90 94,91 94,91 94,91 94,91 94,91 93,91 93,91 93,91 93,92 93,92 93,92 93,92 93,92 92,92 92,92 92,92 92,93 92,93 92,93 92,93 92,93 91,93 91,93 91,93 91,94 91,94 91,94 91,94 91,94 90,94 90,94 90,94 90,95 90,95 90,95 89,95 89,95 89,95 89,95 89,95 89,96 89,96 89,96 88,96 88,96 88,96 88,96 88,96 88,97 87,97 87,97 87,97 87,97 87,97 87,97 86,97 86,98 86,98 86,98 86,98 86,98 85,98 85,98 85,98 85,99 85,99 85,99 84,99 84,99 84,99 84,99 83,99 83,100 83,100 83,100 83,100 83,100 82,100 82,100 82,100 82,101 81,101 81,101 81,101 81,101 80,101 80,101 80,101 80,102 79,102 79,102 79,102 79,102 78,102 78,102 77,102 77,103 77,103 77,103 76,103 76,103 76,103 76,103 75,103 75,103 74,103 74,104 74,104 74,104 73,104 73,104 72,104 72,104 71,104 71,105 70,105 70,105 69,105 69,105 67,105 67,105 65,105 65,106 63,106 63,106 56,106 56,106 53,106 53,105 51,105 51,105 50,105 50,105 48,105 48,105 47,105 47,104 47,104 47,104 46,104 46,104 46,104 46,105 46,105 46,105 46,105 46,105 45,105 45,105 45,105 45,106 45,106 45,106 44,106 44,106 44,106 44,107 42,107 42,107 42,107 42,107 42,107 42,108 41,108 41,108 42,108 42,108 41,108 41,108 40,108 40,109 41,109 41,109 42,109 42,109 42,109 42,109 43,109 43,110 43,110 43,110 44,110 44,110 45,110 45,110 46,110 46,111 48,111 48,111 49,111 49,111 50,111 50,111 51,111 51,112 53,112 53,112 56,112 56,112 64,112 64,112 67,112 67,112 67,112 67,111 70,111 70,111 71,111 71,111 72,111 72,111 72,111 72,110 73,110 73,110 75,110 75,110 75,110 75,110 76,110 76,109 76,109 76,109 78,109 78,109 78,109 78,109 79,109 79,108 79,108 79,108 80,108 80,108 81,108 81,108 81,108 81,107 81,107 81,107 82,107 82,107 82,107 82,107 83,107 83,106 84,106 84,106 84,106 84,106 85,106 85,105 85,105 85,105 86,105 86,105 86,105 86,105 86,105 86,104 87,104 87,104 87,104 87,104 88,104 88,103 89,103 89,103 89,103 89,103 90,103 90,102 90,102 90,102 91,102 91,102 91,102 91,102 91,102 91,101 92,101 92,101 92,101 92,101 92,101 92,100 93,100 93,100 93,100 93,100 94,100 94,99 94,99 94,99 95,99 95,99 95,99 95,98 95,98 95,98 96,98 96,97 96,97 96,97 96,97 96,97 97,97 97,97 97,97 97,96 97,96 97,96 97,96 97,96 97,96 97,96 98,96 98,95 98,95 98,95 98,95 98,95 99,95 99,94 99,94 99,94 99,94 99,94 99,94 99,93 100,93 100,93 100,93 100,93 100,93 100,92 101,92 101,92 101,92 101,91 101,91 101,91 101,91 101,91 102,91 102,91 102,91 102,90 102,90 102,90 102,90 102,89 103,89 103,89 103,89 103,88 104,88 104,88 104,88 104,88 104,88 104,87 104,87 104,87 105,87 105,86 105,86 105,86 105,86 105,85 106,85 106,85 106,85 106,84 106,84 106,84 106,84 106,83 107,83 107,83 107,83 107,82 107,82 107,82 107,82 107,81 108,81 108,81 108,81 108,80 108,80 108,80 108,80 108,79 108,79 108,79 109,79 109,78 109,78 109,77 109,77 109,76 109,76 109,76 110,76 110,75 110,75 110,74 110,74 110,73 110,73 110,72 111,72 111,72 111,72 111,71 111,71 111,69 111,69 111,68 112,68 112,66 112,66 112,62 112,62 112,62 111,62 111,62 111,62 111,62 111,62 111,60 111,60 111,62 109,62 109,62 109,62 109,62 109,62 109,63 108,63 108,62 108,62 108,64 108,64 108,62 108,62 108,61 107,61 107,64 107,64 107,54 106,54 106,52 106,52 106,49 106,49 106,48 106,48 106,47 105,47 105,46 105,46 105,45 105,45 105,44 105,44 105,44 104,44 104,43 104,43 104,42 104,42 104,41 104,41 104,41 103,41 103,40 103,40 103,39 103,39 103,39 102,39 102,38 102,38 102,38 102,38 102,38 102,38 102,37 101,37 101,36 101,36 101,36 101,36 101,35 101,35 101,35 100,35 100,35 100,35 100,34 100,34 100,34 100,34 100,33 99,33 99,33 99,33 99,33 99,33 99,32 99,32 99,32 98,32 98,32 98,32 98,31 98,31 98,31 98,31 98,30 97,30 97,30 97,30 97,30 97,30 97,29 97,29 97,29 97,29 97,29 96,29 96,29 96,29 96,28 96,28 96,28 96,28 96,28 95,28 95,27 95,27 95,27 94,27 94,26 94,26 94,26 94,26 94,26 93,26 93,25 93,25 93,25 93,25 93,25 93,25 93,24 92,24 92,24 92,24 92,24 92,24 92,24 92,24 92,23 91,23 91,23 91,23 91,23 90,23 90,22 90,22 90,22 90,22 90,22 89,22 89,21 88,21 88,21 88,21 88,21 88,21 88,21 88,21 88,20 87,20 87,20 87,20 87,20 86,20 86,19 86,19 86,19 86,19 86,19 85,19 85,18 84,18 84,18 84,18 84,18 84,18 84,17 83,17 83,17 83,17 83,17 82,17 82,17 81,17 81,16 81,16 81,16 81,16 81,16 80,16 80,16 80,16 80,15 79,15 79,15 79,15 79,15 78,15 78,15 77,15 77,15 77,15 77,14 76,14 76,14 76,14 76,14 76,14 76,14 74,14 74,13 73,13 73,13 72,13 72,13 72,13 72,13 71,13 71,12 70,12 70,12 69,12 69,12 68,12 68,12 67,12 67,11 64,11 64,11 62,11 62,11 55,11 55,11 55,11 55,11 53,11 53,12 52,12 52,12 50,12 50,12 49,12 49,12 48,12 48,13 47,13 47,13 46,13 46,13 44,13 44,13 44,13 44,14 43,14 43,14 43,14 43,14 42,14 42,14 41,14 41,15 41,15 41,15 40,15 40,15 39,15 39,15 39,15 39,16 39,16 39,16 38,16 38,16 37,16 37,16 37,16 37,17 37,17 37,17 36,17 36,17 35,17 35,17 35,17 35,18 35,18 35,18 34,18 34,18 34,18 34,19 33,19 33,19 33,19 33,19 32,19 32,20 32,20 32,20 31,20 31,20 31,20 31,20 31,20 31,21 30,21 30,21 30,21 30,21 29,21 29,22 29,22 29,22 29,22 29,22 29,22 29,22 28,22 28,23 28,23 28,23 28,23 28,23 27,23 27,23 27,23 27,24 27,24 27,24 27,24 27,24 26,24 26,25 26,25 26,25 26,25 26,25 25,25 25,25 25,25 25,26 25,26 25,26 24,26 24,27 24,27 24,27 24,27 24,27 23,27 23,28 23,28 23,28 23,28 23,29 22,29 22,29 22,29 22,29 22,29 22,30 22,30 22,30 21,30 21,30 21,30 21,31 21,31 21,31 20,31 20,31 20,31 20,32 20,32 20,32 20,32 20,33 19,33 19,33 19,33 19,34 19,34 19,34 19,34 19,34 18,34 18,35 18,35 18,35 18,35 18,36 18,36 18,36 17,36 17,37 17,37 17,38 17,38 17,38 17,38 17,38 16,38 16,39 16,39 16,40 16,40 16,40 15,40 15,41 15,41 15,41 15,41 15,43 15,43 15,43 14,43 14,44 14,44 14,45 14,45 14,45 14,45 14,47 13,47 13,48 13,48 13,49 13,49 13,50 13,50 13,52 12,52 12,53 12,53 12,54 12,54 12,62 12,62 12,63 12,63 12,66 13,66 13,67 13,67 13,69 13,69 13,70 14,70 14,71 14,71 14,71 14,71 14,73 14,73 14,74 15,74 15,75 15,75 15,76 15,76 15,76 15,76 15,77 16,77 16,78 "/>
   <polygon class="fil2" points="112,63 112,66 112,66 112,68 111,68 111,69 111,69 111,71 111,71 111,72 111,72 111,72 110,72 110,73 110,73 110,74 110,74 110,75 110,75 110,76 109,76 109,76 109,76 109,77 109,77 109,78 109,78 109,79 108,79 108,79 108,79 108,80 108,80 108,80 108,80 108,81 108,81 108,81 107,81 107,82 107,82 107,82 107,82 107,83 107,83 107,83 106,83 106,84 106,84 106,84 106,84 106,85 106,85 106,85 105,85 105,86 105,86 105,86 105,86 105,87 104,87 104,87 104,87 104,88 104,88 104,88 104,88 104,88 103,88 103,89 103,89 103,89 102,89 102,90 102,90 102,90 102,90 102,91 102,91 102,91 101,91 101,91 101,91 101,91 101,91 101,92 101,92 101,92 100,92 100,93 100,93 100,93 100,93 100,93 99,93 99,94 99,94 99,94 99,94 99,94 99,94 99,95 98,95 98,95 98,95 98,95 98,95 98,96 97,96 97,96 97,96 97,96 97,96 97,96 97,96 97,97 97,97 97,97 96,97 96,97 96,97 96,97 96,97 96,98 95,98 95,98 95,98 95,99 95,99 95,99 94,99 94,99 94,99 94,100 93,100 93,100 93,100 93,100 92,100 92,101 92,101 92,101 92,101 92,101 91,101 91,102 91,102 91,102 91,102 91,102 90,102 90,102 90,102 90,103 89,103 89,103 89,103 89,103 88,103 88,104 87,104 87,104 87,104 87,104 86,104 86,105 86,105 86,105 86,105 86,105 85,105 85,105 85,105 85,106 84,106 84,106 84,106 84,106 83,106 83,107 82,107 82,107 82,107 82,107 81,107 81,107 81,107 81,108 81,108 81,108 80,108 80,108 79,108 79,108 79,108 79,109 78,109 78,109 78,109 78,109 76,109 76,109 76,109 76,110 75,110 75,110 75,110 75,110 73,110 73,110 72,110 72,111 72,111 72,111 71,111 71,111 70,111 70,111 67,111 67,112 67,112 67,112 64,112 64,112 56,112 56,112 53,112 53,112 51,112 51,111 50,111 50,111 49,111 49,111 48,111 48,111 46,111 46,110 45,110 45,110 44,110 44,110 43,110 43,110 43,110 43,109 42,109 42,109 42,109 42,109 41,109 41,109 40,109 40,108 40,108 40,108 39,108 39,108 38,108 38,108 38,108 38,107 37,107 37,107 37,107 37,107 36,107 36,107 36,107 36,106 35,106 35,106 35,106 35,106 34,106 34,106 33,106 33,105 33,105 33,105 33,105 33,105 32,105 32,104 32,104 32,104 31,104 31,104 31,104 31,104 30,104 30,103 30,103 30,103 29,103 29,102 29,102 29,102 28,102 28,102 28,102 28,102 27,102 27,101 27,101 27,101 27,101 27,101 26,101 26,100 26,100 26,100 25,100 25,100 25,100 25,99 24,99 24,99 24,99 24,99 24,99 24,98 23,98 23,98 23,98 23,98 23,98 23,97 22,97 22,97 22,97 22,96 22,96 22,96 21,96 21,96 21,96 21,95 20,95 20,95 20,95 20,94 20,94 20,94 19,94 19,94 19,94 19,94 19,94 19,93 18,93 18,93 18,93 18,92 18,92 18,92 18,92 18,91 17,91 17,91 17,91 17,91 17,91 17,90 16,90 16,90 16,90 16,89 16,89 16,89 15,89 15,89 15,89 15,88 15,88 15,88 15,88 15,88 14,88 14,87 14,87 14,87 14,87 14,87 14,87 14,86 13,86 13,86 13,86 13,85 13,85 13,85 13,85 13,84 12,84 12,84 12,84 12,83 12,83 12,83 12,83 12,82 11,82 11,82 11,82 11,81 11,81 11,81 11,81 11,80 11,80 11,80 10,80 10,79 10,79 10,78 10,78 10,78 10,78 10,77 9,77 9,76 9,76 9,76 9,76 9,75 9,75 9,74 8,74 8,74 8,74 8,72 8,72 8,71 8,71 8,70 7,70 7,68 7,68 7,67 7,67 7,65 6,65 6,65 6,65 6,65 6,65 6,66 5,66 5,64 5,64 5,66 5,66 5,68 5,68 5,66 4,66 4,66 4,66 4,65 4,65 4,53 4,53 4,51 4,51 4,50 5,50 5,48 5,48 5,47 5,47 5,45 6,45 6,44 5,44 5,44 5,44 5,44 5,44 5,44 4,44 4,44 4,44 4,45 3,45 3,45 2,45 2,46 2,46 2,47 2,47 2,49 2,49 2,50 1,50 1,52 1,52 1,55 1,55 1,64 1,64 1,66 1,66 1,68 2,68 2,69 2,69 2,71 2,71 2,72 2,72 2,73 3,73 3,74 3,74 3,75 3,75 3,76 3,76 3,77 4,77 4,77 4,77 4,78 4,78 4,79 4,79 4,80 5,80 5,80 5,80 5,81 5,81 5,81 5,81 5,82 6,82 6,83 6,83 6,83 6,83 6,84 6,84 6,84 7,84 7,85 7,85 7,85 7,85 7,86 7,86 7,86 8,86 8,87 8,87 8,87 8,87 8,88 8,88 8,88 9,88 9,88 9,88 9,89 9,89 9,89 9,89 9,90 10,90 10,90 10,90 10,90 10,90 10,91 10,91 10,91 11,91 11,91 11,91 11,92 11,92 11,92 11,92 11,93 11,93 11,93 12,93 12,93 12,93 12,94 12,94 12,94 12,94 12,94 13,94 13,95 13,95 13,95 13,95 13,95 13,95 13,96 14,96 14,96 14,96 14,96 14,96 14,97 14,97 14,97 15,97 15,97 15,97 15,97 15,97 15,98 15,98 15,98 16,98 16,98 16,98 16,99 16,99 16,99 16,99 16,99 17,99 17,99 17,99 17,100 18,100 18,100 18,100 18,99 19,99 19,99 20,99 20,99 19,99 19,99 20,99 20,99 21,99 21,99 21,99 21,99 21,99 21,100 21,100 21,100 22,100 22,100 22,100 22,100 22,100 22,101 22,101 22,101 22,101 22,101 23,101 23,101 23,101 23,102 23,102 23,102 24,102 24,102 24,102 24,102 24,102 24,103 24,103 24,103 25,103 25,103 25,103 25,103 25,103 25,103 26,103 26,104 26,104 26,104 26,104 26,104 27,104 27,104 27,104 27,105 27,105 27,105 28,105 28,105 28,105 28,105 29,105 29,106 29,106 29,106 29,106 29,106 30,106 30,106 30,106 30,107 30,107 30,107 31,107 31,107 31,107 31,107 32,107 32,108 32,108 32,108 32,108 32,108 33,108 33,108 33,108 33,109 34,109 34,109 34,109 34,109 35,109 35,109 35,109 35,110 36,110 36,110 36,110 36,110 37,110 37,110 38,110 38,111 38,111 38,111 39,111 39,111 39,111 39,111 40,111 40,112 41,112 41,112 42,112 42,112 42,112 42,112 43,112 43,113 44,113 44,113 44,113 44,113 45,113 45,113 46,113 46,114 47,114 47,114 48,114 48,114 50,114 50,114 51,114 51,115 54,115 54,115 57,115 57,115 63,115 63,115 62,115 62,116 62,116 62,116 61,116 61,116 60,116 60,116 60,116 60,117 59,117 59,117 59,117 59,118 58,118 58,118 65,118 65,118 67,118 67,117 69,117 69,117 70,117 70,117 72,117 72,117 72,117 72,116 74,116 74,116 74,116 74,116 76,116 76,116 76,116 76,115 77,115 77,115 78,115 78,115 78,115 78,115 79,115 79,114 80,114 80,114 80,114 80,114 81,114 81,114 82,114 82,113 82,113 82,113 83,113 83,113 84,113 84,113 84,113 84,112 85,112 85,112 85,112 85,112 86,112 86,112 86,112 86,111 86,111 86,111 87,111 87,111 87,111 87,111 88,111 88,110 88,110 88,110 89,110 89,110 89,110 89,110 89,110 89,109 90,109 90,109 90,109 90,109 91,109 91,109 91,109 91,108 91,108 91,108 92,108 92,108 92,108 92,108 93,108 93,107 93,107 93,107 93,107 93,107 94,107 94,107 94,107 94,106 94,106 94,106 95,106 95,106 95,106 95,106 95,106 95,105 96,105 96,105 96,105 96,105 96,105 96,105 97,105 97,104 97,104 97,104 97,104 97,104 97,104 97,104 97,104 97,103 98,103 98,103 98,103 98,103 98,103 98,103 99,103 99,103 99,103 99,102 99,102 99,102 99,102 99,102 100,102 100,102 100,102 100,101 100,101 100,101 100,101 100,101 101,101 101,101 101,101 101,100 101,100 101,100 101,100 101,100 101,100 101,100 100,100 100,101 100,101 100,101 100,101 100,100 99,100 99,101 99,101 99,101 99,101 99,101 98,101 98,101 98,101 98,101 98,101 98,101 97,101 97,101 97,101 97,101 97,101 97,102 97,102 97,102 97,102 97,102 96,102 96,102 96,102 96,102 96,102 96,103 95,103 95,103 95,103 95,102 95,102 95,102 96,102 96,101 96,101 96,101 96,101 96,101 97,101 97,101 97,101 97,100 97,100 97,100 97,100 97,100 97,100 97,100 98,100 98,99 98,99 98,99 98,99 98,99 98,99 98,99 99,99 99,98 99,98 99,98 99,98 99,98 99,98 99,98 100,98 100,97 100,97 100,97 100,97 100,97 100,97 100,97 101,97 101,96 101,96 101,96 101,96 101,96 101,96 101,95 102,95 102,95 102,95 102,95 102,95 102,95 102,95 102,94 103,94 103,94 103,94 103,94 103,94 103,93 103,93 103,93 104,93 104,93 104,93 104,92 104,92 104,92 104,92 104,92 105,92 105,91 105,91 105,91 105,91 105,91 105,91 105,90 106,90 106,90 106,90 106,90 106,90 106,89 106,89 106,89 107,89 107,88 107,88 107,88 107,88 107,88 107,88 107,87 108,87 108,87 108,87 108,87 108,87 108,86 108,86 108,86 108,86 108,85 109,85 109,85 109,85 109,84 109,84 109,84 109,84 109,83 110,83 110,83 110,83 110,82 110,82 110,81 110,81 110,81 111,81 111,80 111,80 111,80 111,80 111,79 111,79 111,78 112,78 112,78 112,78 112,77 112,77 112,76 112,76 112,76 113,76 113,75 113,75 113,74 113,74 113,73 113,73 113,72 114,72 114,71 114,71 114,70 114,70 114,68 114,68 114,66 115,66 115,64 115,64 115,54 115,54 115,52 114,52 114,49 116,49 116,49 117,49 117,48 117,48 117,47 117,47 117,46 116,46 116,45 116,45 116,44 116,44 116,43 116,43 116,42 115,42 115,41 115,41 115,41 115,41 115,40 115,40 115,39 114,39 114,39 114,39 114,38 114,38 114,37 114,37 114,37 113,37 113,36 113,36 113,35 113,35 113,35 113,35 113,34 112,34 112,34 112,34 112,33 112,33 112,33 112,33 112,32 111,32 111,32 111,32 111,31 111,31 111,31 111,31 111,30 110,30 110,30 110,30 110,30 110,30 110,29 110,29 110,29 109,29 109,29 109,29 109,28 109,28 109,28 109,28 109,27 108,27 108,27 108,27 108,27 108,27 108,26 108,26 108,26 108,26 108,25 107,25 107,25 107,25 107,25 107,25 107,24 107,24 107,24 106,24 106,24 106,24 106,23 106,23 106,23 106,23 106,23 105,23 105,22 105,22 105,22 105,22 105,22 105,22 105,22 104,22 104,21 104,21 104,21 104,21 104,21 104,21 104,20 103,20 103,20 103,20 103,20 103,20 103,20 103,20 103,19 102,19 102,19 102,19 102,19 102,19 102,18 102,18 102,18 101,18 101,18 101,18 101,18 101,18 101,17 101,17 101,17 100,17 100,17 100,17 100,17 100,17 100,16 100,16 100,16 99,16 99,16 99,16 99,16 99,16 99,15 99,15 99,15 98,15 98,15 98,15 98,15 98,15 98,15 97,15 97,14 97,14 97,14 97,14 97,14 97,14 97,14 96,14 96,13 96,13 96,13 96,13 96,13 95,13 95,13 95,13 95,12 95,12 95,12 94,12 94,12 94,12 94,12 94,12 94,11 93,11 93,11 93,11 93,11 93,11 93,11 92,11 92,10 92,10 92,10 92,10 92,10 91,10 91,10 91,10 91,9 90,9 90,9 90,9 90,9 90,9 90,9 89,9 89,8 89,8 89,8 88,8 88,8 88,8 88,8 87,8 87,7 87,7 87,7 86,7 86,8 86,8 86,8 85,8 85,8 85,8 85,8 85,8 85,9 84,9 84,9 84,9 84,9 85,9 85,9 85,9 85,10 86,10 86,10 86,10 86,10 87,10 87,10 87,10 87,11 87,11 87,11 88,11 88,11 88,11 88,11 89,11 89,12 89,12 89,12 89,12 89,12 90,12 90,12 90,12 90,13 91,13 91,13 91,13 91,13 91,13 91,13 92,13 92,14 92,14 92,14 92,14 92,14 93,14 93,14 93,14 93,15 93,15 93,15 94,15 94,15 94,15 94,15 94,15 94,15 95,15 95,16 95,16 95,16 95,16 95,16 95,16 95,16 96,16 96,17 96,17 96,17 96,17 96,17 97,17 97,17 97,17 97,18 97,18 97,18 97,18 97,18 97,18 97,18 98,18 98,19 98,19 98,19 98,19 98,19 98,19 98,19 99,19 99,20 99,20 99,20 99,20 99,20 99,20 99,20 100,20 100,21 100,21 100,21 100,21 100,21 100,21 100,21 101,21 101,22 101,22 101,22 101,22 101,22 101,22 101,23 102,23 102,23 102,23 102,23 102,23 102,24 102,24 102,24 102,24 102,24 102,24 102,25 101,25 101,24 100,24 100,25 101,25 101,25 100,25 100,26 101,26 101,26 101,26 101,27 101,27 101,27 102,27 102,27 102,27 102,28 102,28 102,28 102,28 102,28 103,28 103,29 103,29 103,29 103,29 103,29 104,29 104,30 104,30 104,30 104,30 104,31 104,31 104,31 105,31 105,32 105,32 105,32 105,32 105,32 105,32 105,33 106,33 106,33 106,33 106,34 106,34 106,34 106,34 106,35 107,35 107,36 107,36 107,36 107,36 107,36 108,36 108,37 108,37 108,37 108,37 108,38 108,38 108,39 108,39 108,39 109,39 109,40 109,40 109,41 109,41 109,42 109,42 109,42 110,42 110,43 110,43 110,44 110,44 110,44 110,44 110,45 111,45 111,47 111,47 111,48 111,48 111,49 111,49 111,51 112,51 112,54 112,54 112,56 112,56 112,63 "/>
   <polygon class="fil3" points="7,68 7,68 7,70 8,70 8,71 8,71 8,72 8,72 8,74 8,74 8,74 9,74 9,75 9,75 9,76 9,76 9,76 9,76 9,77 10,77 10,78 10,78 10,78 10,78 10,79 10,79 10,80 11,80 11,80 11,80 11,81 11,81 11,81 11,81 11,82 11,82 11,82 12,82 12,83 12,83 12,83 12,83 12,84 12,84 12,84 13,84 13,85 13,85 13,85 13,85 13,86 13,86 13,86 14,86 14,87 14,87 14,87 14,87 14,87 14,87 14,88 15,88 15,88 15,88 15,88 15,88 15,89 15,89 15,89 16,89 16,89 16,89 16,90 16,90 16,90 17,90 17,91 17,91 17,91 17,91 17,91 18,91 18,92 18,92 18,92 18,92 18,93 18,93 18,93 19,93 19,92 20,92 20,92 19,92 19,91 20,91 20,91 20,91 20,91 21,91 21,90 21,90 21,90 22,90 22,90 22,90 22,89 22,89 22,89 22,89 22,89 22,89 22,88 22,88 22,88 22,88 22,88 22,88 22,87 21,87 21,87 21,87 21,87 21,87 21,86 21,86 21,86 20,86 20,86 20,86 20,85 20,85 20,85 20,85 20,84 19,84 19,84 19,84 19,84 19,84 19,83 19,83 19,83 18,83 18,82 18,82 18,82 18,82 18,82 18,82 18,81 17,81 17,81 17,81 17,80 17,80 17,80 17,80 17,79 16,79 16,79 16,79 16,78 16,78 16,78 16,78 16,77 15,77 15,76 15,76 15,76 15,76 15,75 15,75 15,74 14,74 14,73 14,73 14,71 14,71 14,71 14,71 14,70 13,70 13,69 13,69 13,67 13,67 13,66 12,66 12,63 12,63 12,62 12,62 12,54 12,54 12,53 12,53 12,52 13,52 13,50 13,50 13,49 13,49 13,48 13,48 13,47 14,47 14,45 14,45 14,45 14,45 14,44 14,44 14,43 15,43 15,43 15,43 15,41 15,41 15,41 15,41 15,40 16,40 16,40 16,40 16,39 16,39 16,38 17,38 17,38 17,38 17,38 17,38 17,37 17,37 17,36 18,36 18,36 18,36 18,35 18,35 18,35 18,35 18,34 19,34 19,34 19,34 19,34 19,34 19,33 19,33 19,33 20,33 20,32 20,32 20,32 20,32 20,31 20,31 20,31 21,31 21,31 21,31 21,30 21,30 21,30 22,30 22,30 22,30 22,29 22,29 22,29 22,29 22,29 23,29 23,28 23,28 23,28 23,28 23,27 24,27 24,27 24,27 24,27 24,27 24,26 25,26 25,26 25,26 25,25 25,25 25,25 26,25 26,25 26,25 26,25 26,25 26,24 27,24 27,24 27,24 27,24 27,24 27,23 27,23 27,23 28,23 28,23 28,23 28,23 28,23 28,22 29,22 29,22 29,22 29,22 29,22 29,22 29,22 29,21 30,21 30,21 30,21 30,21 31,21 31,20 31,20 31,20 31,20 31,20 32,20 32,20 32,20 32,19 33,19 33,19 33,19 33,19 34,19 34,18 34,18 34,18 35,18 35,18 35,18 35,17 35,17 35,17 36,17 36,17 37,17 37,17 37,17 37,16 37,16 37,16 38,16 38,16 39,16 39,16 39,16 39,15 39,15 39,15 40,15 40,15 41,15 41,15 41,15 41,14 42,14 42,14 43,14 43,14 43,14 43,14 44,14 44,13 44,13 44,13 46,13 46,13 47,13 47,13 48,13 48,12 49,12 49,12 50,12 50,12 52,12 52,12 53,12 53,11 55,11 55,11 55,11 55,11 62,11 62,11 64,11 64,11 67,11 67,12 68,12 68,12 69,12 69,12 70,12 70,12 71,12 71,13 72,13 72,13 72,13 72,13 73,13 73,13 74,13 74,14 76,14 76,14 76,14 76,14 76,14 76,14 77,14 77,15 77,15 77,15 78,15 78,15 79,15 79,15 79,15 79,15 80,15 80,16 80,16 80,16 81,16 81,16 81,16 81,16 81,16 81,17 82,17 82,17 83,17 83,17 83,17 83,17 84,17 84,18 84,18 84,18 84,18 84,18 85,18 85,19 86,19 86,19 86,19 86,19 86,19 86,20 87,20 87,20 87,20 87,20 88,20 88,21 88,21 88,21 88,21 88,21 88,21 88,21 89,21 89,22 90,22 90,22 90,22 90,22 90,22 90,23 91,23 91,23 91,23 91,23 92,23 92,24 92,24 92,24 92,24 92,24 92,24 92,24 93,24 93,25 93,25 93,25 93,25 93,25 93,25 93,26 94,26 94,26 94,26 94,26 94,26 94,27 95,27 95,27 95,27 95,28 96,28 96,28 96,28 96,28 96,28 96,29 96,29 96,29 97,29 97,29 97,29 97,29 97,29 97,30 97,30 97,30 97,30 97,30 98,30 98,31 98,31 98,31 98,31 98,32 98,32 98,32 99,32 99,32 99,32 99,33 99,33 99,33 99,33 99,33 100,33 100,34 100,34 100,34 100,34 100,35 100,35 100,35 101,35 101,35 101,35 101,36 101,36 101,36 102,36 102,37 102,37 102,37 102,37 102,37 102,37 102,37 102,37 102,36 104,36 104,36 104,36 104,36 104,36 104,35 105,35 105,35 105,35 105,35 105,35 105,35 105,35 105,34 106,34 106,34 106,34 106,34 106,34 106,33 106,33 106,33 105,33 105,32 105,32 105,32 105,32 105,32 105,32 105,31 104,31 104,31 104,31 104,30 104,30 104,30 104,30 104,29 103,29 103,29 103,29 103,29 103,29 103,28 102,28 102,28 102,28 102,28 102,28 102,27 102,27 102,27 101,27 101,27 101,27 101,26 101,26 101,26 100,26 100,25 100,25 100,25 100,25 100,25 99,25 99,24 99,24 99,24 99,24 99,24 99,24 99,23 98,23 98,23 98,23 98,23 98,23 98,22 97,22 97,22 97,22 97,22 97,22 97,21 97,21 97,21 97,21 97,21 96,21 96,20 96,20 96,20 95,20 95,20 95,20 95,19 95,19 95,19 94,19 94,19 94,19 94,18 94,18 94,18 93,18 93,18 93,18 93,18 93,18 93,17 93,17 93,17 92,17 92,17 92,17 92,17 92,17 92,16 91,16 91,16 91,16 91,16 90,16 90,16 90,16 90,15 90,15 90,15 89,15 89,15 89,15 89,15 89,15 89,14 88,14 88,14 87,14 87,14 87,14 87,13 86,13 86,13 86,13 86,13 86,13 86,13 86,13 86,12 85,12 85,12 84,12 84,12 84,12 84,12 84,12 84,11 83,11 83,11 82,11 82,11 82,11 82,11 82,11 82,10 81,10 81,10 80,10 80,10 80,10 80,10 79,10 79,9 78,9 78,9 78,9 78,9 77,9 77,9 76,9 76,8 76,8 76,8 75,8 75,8 74,8 74,8 73,8 73,7 72,7 72,7 71,7 71,7 70,7 70,7 70,7 70,6 67,6 67,6 64,6 64,6 62,6 62,6 56,6 56,6 52,6 52,6 51,6 51,6 49,6 49,7 48,7 48,7 47,7 47,7 47,7 47,7 46,7 46,8 45,8 45,8 43,8 43,8 43,8 43,8 43,8 43,9 42,9 42,9 41,9 41,9 41,9 41,9 40,9 40,10 39,10 39,10 38,10 38,10 38,10 38,10 37,10 37,11 37,11 37,11 36,11 36,11 36,11 36,11 35,11 35,12 35,12 35,12 34,12 34,12 33,12 33,12 33,12 33,13 32,13 32,13 32,13 32,13 32,13 32,13 31,13 31,14 31,14 31,14 30,14 30,15 30,15 30,15 30,15 30,15 29,15 29,15 29,15 29,15 28,15 28,16 28,16 28,16 28,16 28,16 28,16 28,16 27,16 27,17 27,17 27,17 27,17 27,17 26,17 26,18 26,18 26,18 25,18 25,18 25,18 25,19 24,19 24,19 24,19 24,19 24,19 24,20 23,20 23,20 23,20 23,20 23,20 23,20 23,20 23,21 22,21 22,21 22,21 22,21 22,21 22,22 21,22 21,22 21,22 21,23 21,23 21,23 20,23 20,23 20,23 20,23 20,23 20,24 19,24 19,24 19,24 19,25 19,25 19,25 18,25 18,25 18,25 18,26 18,26 18,26 18,26 18,26 17,26 17,27 17,27 17,27 17,27 17,28 16,28 16,28 16,28 16,29 16,29 16,29 15,29 15,30 15,30 15,30 14,30 14,31 14,31 14,32 13,32 13,32 13,32 13,33 13,33 13,33 13,33 13,33 12,33 12,34 12,34 12,34 12,34 12,35 12,35 12,36 11,36 11,36 11,36 11,37 11,37 11,37 11,37 11,38 11,38 11,38 10,38 10,39 10,39 10,40 10,40 10,40 10,40 10,41 9,41 9,42 9,42 9,42 9,42 9,43 9,43 9,44 8,44 8,45 8,45 8,45 8,45 8,46 8,46 8,47 7,47 7,50 7,50 7,51 7,51 7,52 7,52 7,55 6,55 6,64 7,64 7,64 7,64 7,67 7,67 "/>
   <polygon class="fil4" points="25,42 35,42 35,42 35,42 35,42 36,42 36,42 38,42 38,41 40,41 40,40 42,40 42,40 42,40 42,40 43,40 43,40 45,40 45,39 45,39 45,39 48,39 48,38 69,38 69,39 71,39 71,40 73,40 73,40 78,40 78,41 79,41 79,41 81,41 81,42 85,42 85,42 91,42 91,44 93,44 93,43 93,43 93,43 93,43 93,42 93,42 93,41 93,41 93,37 93,37 93,36 92,36 92,35 92,35 92,35 92,35 92,34 92,34 92,34 91,34 91,33 91,33 91,32 91,32 91,32 91,32 91,32 90,32 90,31 90,31 90,31 90,31 90,30 90,30 90,30 89,30 89,30 89,30 89,29 89,29 89,29 89,29 89,29 88,29 88,28 88,28 88,28 88,28 88,28 88,28 88,28 87,28 87,27 87,27 87,27 87,27 87,27 87,27 87,26 86,26 86,26 86,26 86,26 86,26 86,26 86,26 86,25 86,25 86,25 85,25 85,25 85,25 85,25 85,25 85,24 84,24 84,24 84,24 84,24 84,24 84,24 84,24 84,23 83,23 83,23 83,23 83,23 83,23 83,23 82,23 82,22 82,22 82,23 82,23 82,23 81,23 81,24 81,24 81,24 79,24 79,25 78,25 78,25 80,25 80,26 80,26 80,26 81,26 81,26 82,26 82,26 82,26 82,27 81,27 81,27 82,27 82,27 81,27 81,27 79,27 79,28 73,28 73,28 65,28 65,28 54,28 54,28 52,28 52,28 46,28 46,28 45,28 45,28 40,28 40,27 40,27 40,27 39,27 39,27 42,27 42,26 42,26 42,26 41,26 41,26 40,26 40,25 39,25 39,25 39,25 39,24 40,24 40,24 38,24 38,23 39,23 39,22 38,22 38,22 39,22 39,22 40,22 40,22 40,22 40,21 40,21 40,21 39,21 39,21 39,21 39,21 38,21 38,21 38,21 38,21 38,21 38,21 37,21 37,22 37,22 37,22 36,22 36,22 36,22 36,22 36,22 36,23 35,23 35,23 35,23 35,23 35,23 35,23 34,23 34,24 34,24 34,24 34,24 34,24 33,24 33,24 33,24 33,25 33,25 33,25 33,25 33,25 32,25 32,25 32,25 32,26 32,26 32,26 32,26 32,26 32,26 32,26 31,26 31,27 31,27 31,27 31,27 31,27 31,27 31,27 30,27 30,28 30,28 30,28 30,28 30,28 30,28 30,29 29,29 29,29 29,29 29,29 29,29 29,29 29,29 29,30 28,30 28,30 28,30 28,31 28,31 28,31 28,31 28,31 27,31 27,32 27,32 27,32 27,32 27,33 27,33 27,33 26,33 26,34 26,34 26,35 26,35 26,35 26,35 26,36 25,36 25,37 25,37 25,38 25,38 25,39 25,39 "/>
   <path class="fil5" d="M3 78l0 -2 0 0 0 0 0 0 0 -1 0 0 0 -1 0 0 0 -1 -1 0 0 -1 0 0 0 -1 0 0 0 -2 0 0 0 -1 -1 0 0 -2 0 0 0 -2 0 0 0 -9 0 0 0 -3 0 0 0 -2 1 0 0 -1 0 0 0 -2 0 0 0 -1 0 0 0 -1 1 0 0 0 1 0 0 -1 0 0 0 0 1 0 0 0 0 0 0 0 0 0 0 0 1 0 0 1 -1 0 0 2 0 0 0 1 0 0 0 2 -1 0 0 1 0 0 0 2 0 0 0 12 0 0 0 1 0 0 0 0 1 0 0 2 0 0 0 -2 0 0 0 -2 0 0 0 2 1 0 0 -1 0 0 0 0 0 0 0 0 1 0 0 2 0 0 0 1 0 0 0 -1 0 0 0 -3 0 0 0 0 -1 0 0 -9 1 0 0 -3 0 0 0 -1 0 0 0 -1 0 0 0 -3 1 0 0 -1 0 0 0 -1 0 0 0 0 0 0 0 -1 1 0 0 -1 0 0 0 -1 0 0 0 0 0 0 0 -1 1 0 0 -1 0 0 0 0 0 0 0 -1 0 0 0 -1 1 0 0 0 0 0 0 -1 0 0 0 0 0 0 0 -1 0 0 0 0 1 0 0 -1 0 0 0 -1 0 0 0 0 0 0 0 -1 1 0 0 0 0 0 0 0 0 0 0 -1 0 0 0 0 1 0 0 -1 0 0 0 -1 1 0 0 0 0 0 0 -1 1 0 0 0 0 0 0 -1 0 0 0 0 1 0 0 -1 0 0 0 0 0 0 0 -1 1 0 0 0 0 0 0 0 0 0 0 -1 0 0 0 0 1 0 0 0 0 0 0 -1 0 0 0 0 1 0 0 -1 0 0 0 0 0 0 0 0 1 0 0 0 0 0 0 -1 0 0 0 0 1 0 0 -1 0 0 0 0 0 0 0 0 1 0 0 -1 0 0 0 0 0 0 0 0 0 0 0 0 1 0 0 -1 0 0 0 0 0 0 0 0 1 0 0 -1 0 0 0 0 1 0 0 0 0 0 0 -1 1 0 0 0 0 0 0 0 0 0 0 -1 1 0 0 0 0 0 0 0 0 0 0 0 0 0 0 -1 1 0 0 0 0 0 0 0 1 0 0 0 0 0 0 0 0 0 0 -1 1 0 0 0 0 0 0 -1 1 0 0 0 0 0 0 0 0 0 0 0 1 0 0 -1 0 0 0 0 1 0 0 0 1 0 0 0 0 0 0 -1 1 0 0 0 0 0 0 0 1 0 0 0 0 0 0 -1 1 0 0 0 0 0 0 0 1 0 0 0 1 0 0 -1 1 0 0 0 0 0 0 0 1 0 0 0 1 0 0 -1 0 0 0 0 0 0 0 0 2 0 0 0 1 0 0 -1 1 0 0 0 0 0 0 0 1 0 0 0 1 0 0 -1 2 0 0 0 1 0 0 0 4 0 0 0 6 0 0 0 2 0 0 0 3 0 0 0 3 0 0 1 0 0 0 0 1 0 0 0 1 0 0 0 1 0 0 1 1 0 0 0 1 0 0 0 1 0 0 0 0 0 0 1 1 0 0 0 1 0 0 0 0 0 0 0 1 0 0 1 1 0 0 0 0 0 0 0 1 0 0 0 1 0 0 1 0 0 0 0 0 0 0 0 1 0 0 0 1 0 0 1 0 0 0 0 0 0 0 0 1 0 0 0 1 0 0 1 0 0 0 0 0 0 0 0 0 0 0 0 1 0 0 1 0 0 0 0 1 0 0 0 1 0 0 1 0 0 0 0 0 0 0 0 1 0 0 0 0 0 0 1 0 0 0 0 1 0 0 0 0 0 0 0 1 0 0 1 0 0 0 0 0 0 0 0 1 0 0 0 0 0 0 1 0 0 0 0 0 0 0 0 1 0 0 0 0 0 0 1 0 0 0 0 1 0 0 0 0 0 0 1 0 0 0 0 1 0 0 0 0 0 0 1 1 0 0 0 0 0 0 0 0 0 0 1 0 0 0 0 0 0 0 0 1 0 0 1 0 0 0 0 0 0 0 0 1 0 0 1 0 0 0 0 0 0 0 0 0 0 0 1 1 0 0 0 0 0 0 0 0 0 0 0 1 0 0 0 -1 0 0 -1 1 0 0 1 1 0 0 -1 0 0 0 0 0 0 0 0 0 0 0 -1 0 0 0 0 0 0 0 0 -1 0 0 -1 0 0 0 0 0 0 0 0 0 0 0 -1 -1 0 0 0 0 0 0 0 0 0 0 0 0 0 0 -1 -1 0 0 0 0 0 0 0 0 0 0 0 0 0 0 -1 -1 0 0 0 0 0 0 0 0 0 0 0 0 0 0 -1 -1 0 0 0 0 0 0 0 0 0 0 0 0 0 0 -1 0 0 0 0 -1 0 0 0 0 0 0 0 0 0 0 -1 -1 0 0 0 0 0 0 0 0 0 0 0 0 0 0 -1 -1 0 0 0 0 0 0 0 0 0 0 0 -1 0 0 0 0 0 0 -1 0 0 0 0 -1 0 0 0 0 0 0 0 0 0 0 -1 -1 0 0 0 0 0 0 0 0 0 0 0 -1 0 0 -1 0 0 0 0 -1 0 0 0 0 0 0 0 0 0 0 -1 -1 0 0 0 0 0 0 0 -1 0 0 0 0 0 0 -1 0 0 0 0 -1 0 0 0 0 0 0 0 -1 0 0 -1 0 0 0 0 -1 0 0 0 0 0 0 0 1 0 0 -1 0 0 0 0 0 0 0 0 1 0 0 0 0 0 0 -1 1 0 0 0 0 0 0 1 1 0 0 0 0 0 0 0 1 0 0 0 0 0 0 1 1 0 0 0 0 0 0 0 0 0 0 0 1 0 0 1 0 0 0 0 1 0 0 0 0 0 0 0 0 0 0 1 1 0 0 0 0 0 0 0 0 0 0 0 1 0 0 1 0 0 0 0 0 0 0 0 1 0 0 0 0 0 0 1 0 0 0 0 1 0 0 0 0 0 0 0 0 0 0 1 1 0 0 0 0 0 0 0 0 0 0 0 0 0 0 1 1 0 0 0 0 0 0 0 0 0 0 0 1 0 0 0 0 0 0 1 0 0 0 0 0 0 0 0 1 0 0 0 0 0 0 1 0 0 0 0 0 0 0 0 1 0 0 0 0 0 0 1 0 0 0 0 0 0 0 0 1 0 0 0 0 0 0 1 0 0 0 0 0 0 0 0 1 0 0 1 0 0 0 0 0 0 0 0 0 0 0 -1 0 0c-5,-6 -12,-11 -20,-14l0 0 0 0 0 0 0 -1 0 1 -1 0 0 -1 -1 0 0 0 0 0 0 0 -1 0 0 0 0 0 0 -1 -1 0 0 0 -1 0 0 0 -1 0 0 0 0 0 0 -1 -1 0 0 0 -1 0 0 0 -1 0 0 0 -1 0 0 -1 -1 0 0 0 -1 0 0 0 -2 0 0 0 -1 0 0 -1 -2 0 0 0 -3 0 0 0 -7 0 0 0 -3 0 0 0 -2 0 0 1 -1 0 0 0 -2 0 0 0 -1 0 0 0 -1 0 0 1 -1 0 0 0 -1 0 0 0 -1 0 0 0 -1 0 0 1 0 0 0 0 -1 0 0 0 -1 0 0 0 -1 0 0 1 0 0 0 0 -1 0 0 0 -1 0 0 0 0 0 0 1 -1 0 0 0 0 0 0 0 -1 0 0 0 0 0 0 1 -1 0 0 0 -1 0 0 0 0 0 0 0 0 0 0 1 -1 0 0 0 0 0 0 0 -1 0 0 0 0 0 0 1 -1 0 0 0 0 0 0 0 0 0 0 0 -1 0 0 1 0 0 0 0 -1 0 0 0 0 0 0 0 0 0 0 1 -1 0 0 0 0 0 0 0 -1 0 0 0 0 0 0 1 0 0 0 0 -1 0 0 0 0 0 0 0 0 0 0 1 -1 0 0 0 0 0 0 0 0 0 0 0 -1 0 0 1 0 0 0 0 0 0 0 0 -1 0 0 0 0 0 0 1 0 0 0 0 0 0 0 0 -1 0 0 0 0 0 0 1 0 0 0 0 0 0 0 0 -1 0 0 0 0 0 0 0 0 0 0 1 -1 0 0 0 0 0 0 0 0 0 0 0 0 0 0 1 -1 0 0 0 0 0 0 0 0 0 0 0 0 0 0 1 -1 0 0 0 0 0 0 0 0 0 0 0 0 0 0 1 -1 0 0 0 0 0 0 0 0 0 0 1 0 0 0 0 -1 0 0 0 0 0 0 0 0 0 0 1 0 0 0 0 -1 0 0 0 0 0 0 1 0 0 0 0 0 0 0 0 -1 0 0 0 0 0 0 1 0 0 0 0 0 0 0 0 -1 0 0 1 0 0 0 0 0 0 0 1 0 0 0 0 -1 0 0 0 0 0 0 1 0 0 0 0 0 0 0 0 0 0 0 1 -1 0 0 0 0 0 0 0 0 0 0 1 0 0 0 0 -1 0 0 1 0 0 0 0 0 0 0 0 0 0 0 1 -1 0 0 0 0 0 0 1 0 0 0 0 0 0 0 0 -1 0 0 1 0 0 0 0 0 0 0 1 0 0 0 0 -1 0 0 1 0 0 0 1 0 0 0 0 0 0 0 1 -1 0 0 0 0 0 0 1 0 0 0 0 0 0 0 1 -1 0 0 1 0 0 0 0 0 0 0 1 0 0 0 1 -1 0 0 0 0 0 0 0 0 0 0 1 -1 0 0 1 0 0 0 1 0 0 0 1 0 0 0 1 -1 0 0 1 0 0 0 1 0 0 0 2 0 0 0 1 -1 0 0 2 0 0 0 3 0 0 0 7 0 0 0 3 0 0 0 1 1 0 0 1 0 0 0 2 0 0 0 2 0 0 0 0 1 0 0 1 0 0 0 1 0 0 0 1 0 0 0 1 1 0 0 1 0 0 0 1 0 0z"/>
   <polygon class="fil6" points="89,29 89,30 89,30 89,30 90,30 90,30 90,30 90,31 90,31 90,31 90,31 90,32 91,32 91,32 91,32 91,32 91,32 91,33 91,33 91,34 92,34 92,34 92,34 92,35 92,35 92,35 92,35 92,36 93,36 93,37 93,37 93,38 93,38 93,40 93,40 93,46 93,46 93,47 93,47 93,48 93,48 93,49 95,49 95,49 96,49 96,49 97,49 97,50 97,50 97,50 98,50 98,50 98,50 98,50 98,50 98,51 99,51 99,51 99,51 99,51 99,51 99,51 100,51 100,52 100,52 100,52 100,52 100,52 100,52 100,53 101,53 101,53 101,53 101,54 101,54 101,54 101,54 101,55 101,55 101,56 100,56 100,56 98,56 98,56 98,56 98,57 98,57 98,60 98,60 98,61 97,61 97,61 98,61 98,62 98,62 98,62 99,62 99,62 100,62 100,63 100,63 100,63 101,63 101,63 102,63 102,63 101,63 101,64 101,64 101,65 101,65 101,65 101,65 101,66 100,66 100,66 100,66 100,67 100,67 100,67 100,67 100,67 99,67 99,68 99,68 99,68 99,68 99,68 99,68 99,68 98,68 98,69 98,69 98,69 98,69 98,69 97,69 97,69 97,69 97,70 96,70 96,70 96,70 96,70 96,70 96,71 96,71 96,70 97,70 97,71 97,71 97,71 96,71 96,71 97,71 97,71 96,71 96,72 96,72 96,72 96,72 96,74 95,74 95,76 95,76 95,74 94,74 94,76 94,76 94,78 93,78 93,80 93,80 93,80 92,80 92,80 92,80 92,82 91,82 91,82 91,82 91,82 90,82 90,82 90,82 90,82 90,82 90,83 90,83 90,83 89,83 89,83 89,83 89,83 89,83 89,84 89,84 89,85 88,85 88,85 88,85 88,85 88,85 88,86 87,86 87,86 87,86 87,86 86,86 86,87 86,87 86,87 86,87 86,87 86,87 86,87 86,87 86,88 85,88 85,88 84,88 84,88 84,88 84,88 84,88 84,89 84,89 84,89 83,89 83,89 83,89 83,90 82,90 82,90 82,90 82,90 82,90 82,90 82,90 82,91 81,91 81,91 81,91 81,91 80,91 80,91 79,91 79,92 79,92 79,92 78,92 78,93 77,93 77,93 75,93 75,94 75,94 75,94 74,94 74,95 73,95 73,95 73,95 73,95 72,95 72,96 71,96 71,96 67,96 67,97 65,97 65,98 64,98 64,97 62,97 62,98 58,98 58,97 56,97 56,98 54,98 54,97 52,97 52,96 48,96 48,95 46,95 46,95 44,95 44,93 42,93 42,93 40,93 40,92 38,92 38,91 38,91 38,91 37,91 37,90 37,90 37,90 37,90 37,90 37,90 37,89 35,89 35,89 35,89 35,89 35,89 35,88 35,88 35,88 34,88 34,87 32,87 32,87 32,87 32,86 32,86 32,86 31,86 31,86 31,86 31,85 31,85 31,85 30,85 30,83 30,83 30,83 29,83 29,82 29,82 29,82 29,82 29,82 28,82 28,80 27,80 27,80 27,80 27,80 26,80 26,78 26,78 26,78 26,78 26,77 25,77 25,77 25,77 25,76 25,76 25,76 24,76 24,74 24,74 24,73 23,73 23,72 23,72 23,71 23,71 23,70 22,70 22,70 22,70 22,71 22,71 22,71 21,71 21,71 22,71 22,70 18,70 18,71 18,71 18,71 18,71 18,71 18,71 18,71 18,71 18,72 18,72 18,72 19,72 19,72 19,72 19,73 19,73 19,74 19,74 19,74 20,74 20,75 20,75 20,75 20,75 20,76 20,76 20,77 21,77 21,77 21,77 21,78 21,78 21,78 21,78 21,79 22,79 22,79 22,79 22,80 22,80 22,80 22,80 22,80 23,80 23,81 23,81 23,81 23,81 23,82 24,82 24,82 24,82 24,83 24,83 24,84 24,84 24,86 26,86 26,86 25,86 25,86 25,86 25,87 26,87 26,87 26,87 26,88 26,88 26,88 25,88 25,87 25,87 25,87 25,87 25,87 24,87 24,86 24,86 24,86 23,86 23,86 23,86 23,85 23,85 23,85 22,85 22,85 22,85 22,84 22,84 22,84 22,84 22,84 21,84 21,84 21,84 21,83 21,83 21,83 21,83 21,83 20,83 20,83 20,83 20,82 20,82 20,82 20,82 20,82 19,82 19,81 19,81 19,81 19,81 19,81 19,81 19,81 18,81 18,80 18,80 18,80 18,80 18,80 18,80 18,79 17,79 17,79 17,79 17,79 17,79 17,78 17,78 17,78 16,78 16,78 16,78 16,77 16,77 16,78 16,78 16,79 16,79 16,79 17,79 17,80 17,80 17,80 17,80 17,81 17,81 17,81 18,81 18,82 18,82 18,82 18,82 18,82 18,82 18,83 19,83 19,83 19,83 19,84 19,84 19,84 19,84 19,84 20,84 20,85 20,85 20,85 20,85 20,86 20,86 20,86 21,86 21,86 21,86 21,87 21,87 21,87 21,87 21,87 22,87 22,88 22,88 22,88 22,88 22,88 22,88 22,88 22,88 22,89 23,89 23,89 23,89 23,89 23,89 23,90 23,90 23,90 24,90 24,90 24,90 24,90 24,90 24,91 24,91 24,91 25,91 25,91 25,91 25,91 25,91 25,92 25,92 25,92 26,92 26,92 26,92 26,93 26,93 26,93 26,93 26,93 27,93 27,93 27,93 27,94 27,94 27,94 28,94 28,94 28,94 28,94 28,94 28,95 28,95 28,95 29,95 29,95 29,95 29,95 29,95 29,96 30,96 30,96 30,96 30,96 30,96 30,96 31,96 31,97 31,97 31,96 31,96 31,96 31,96 31,96 31,96 31,96 31,96 31,95 31,95 31,93 31,93 31,93 31,93 31,93 31,93 31,92 32,92 32,92 32,92 32,92 33,92 33,93 33,93 33,93 34,93 34,93 34,93 34,93 35,93 35,94 35,94 35,94 36,94 36,94 36,94 36,94 37,94 37,95 37,95 37,95 38,95 38,95 39,95 39,95 39,95 39,96 40,96 40,96 40,96 40,96 41,96 41,96 42,96 42,97 42,97 42,97 43,97 43,97 44,97 44,97 44,97 44,98 45,98 45,98 46,98 46,98 47,98 47,98 48,98 48,99 49,99 49,99 50,99 50,99 51,99 51,99 52,99 52,100 54,100 54,100 56,100 56,100 58,100 58,100 60,100 60,101 66,101 66,100 69,100 69,100 71,100 71,100 73,100 73,100 74,100 74,99 75,99 75,99 76,99 76,99 77,99 77,99 77,99 77,98 78,98 78,98 79,98 79,98 80,98 80,98 80,98 80,97 81,97 81,97 82,97 82,97 82,97 82,97 83,97 83,96 83,96 83,96 84,96 84,96 84,96 84,96 85,96 85,95 85,95 85,95 85,95 85,94 86,94 86,94 86,94 86,94 86,94 86,93 87,93 87,93 87,93 87,93 87,93 87,92 88,92 88,93 88,93 88,92 88,92 88,92 88,92 88,92 87,92 87,92 88,92 88,91 88,91 88,92 88,92 88,91 89,91 89,91 89,91 89,91 90,91 90,90 90,90 90,90 90,90 90,90 91,90 91,89 92,89 92,88 92,88 92,88 93,88 93,88 92,88 92,87 92,87 92,87 93,87 93,87 93,87 93,87 94,87 94,86 94,86 94,86 94,86 94,86 94,86 94,85 95,85 95,85 95,85 95,84 96,84 96,84 96,84 96,84 96,84 96,83 96,83 96,83 97,83 97,82 97,82 97,82 97,82 97,81 97,81 97,81 97,81 97,81 98,81 98,80 98,80 98,80 99,80 99,79 99,79 99,79 99,79 99,78 100,78 100,78 100,78 100,77 100,77 100,76 100,76 100,75 100,75 100,74 100,74 100,74 101,74 101,74 101,74 101,73 101,73 101,72 101,72 101,71 102,71 102,71 102,71 102,69 101,69 101,69 101,69 101,68 101,68 101,66 102,66 102,66 102,66 102,66 102,66 102,65 103,65 103,65 102,65 102,64 103,64 103,64 102,64 102,64 103,64 103,63 102,63 102,63 103,63 103,62 102,62 102,62 103,62 103,62 102,62 102,60 103,60 103,58 102,58 102,56 103,56 103,55 102,55 102,55 102,55 102,54 102,54 102,54 103,54 103,53 102,53 102,52 102,52 102,53 102,53 102,52 101,52 101,50 101,50 101,48 100,48 100,46 100,46 100,45 100,45 100,45 99,45 99,44 99,44 99,42 98,42 98,40 97,40 97,40 97,40 97,38 97,38 97,38 96,38 96,38 96,38 96,37 96,37 96,37 96,37 96,37 95,37 95,36 95,36 95,35 95,35 95,35 95,35 95,34 94,34 94,33 93,33 93,33 93,33 93,32 92,32 92,30 91,30 91,30 91,30 91,29 90,29 90,29 90,29 90,30 90,30 90,29 "/>
   <polygon class="fil7" points="25,42 25,46 25,46 25,47 25,47 25,48 25,48 25,49 28,49 28,49 29,49 29,50 29,50 29,50 30,50 30,50 30,50 30,50 31,50 31,51 31,51 31,51 31,51 31,51 31,51 31,51 32,51 32,51 33,51 33,51 33,51 33,50 33,50 33,50 34,50 34,50 36,50 36,49 36,49 36,49 37,49 37,49 37,49 37,48 37,48 37,48 38,48 38,48 39,48 39,48 40,48 40,48 40,48 40,49 41,49 41,49 41,49 41,49 41,49 41,49 41,49 41,48 41,48 41,48 42,48 42,48 43,48 43,48 43,48 43,47 44,47 44,47 45,47 45,47 46,47 46,47 46,47 46,46 47,46 47,46 49,46 49,46 49,46 49,46 50,46 50,46 50,46 50,46 51,46 51,45 56,45 56,45 64,45 64,45 68,45 68,46 69,46 69,46 69,46 69,46 70,46 70,46 70,46 70,46 71,46 71,46 71,46 71,46 72,46 72,46 72,46 72,47 73,47 73,47 74,47 74,47 75,47 75,47 76,47 76,48 77,48 77,48 77,48 77,48 77,48 77,48 77,48 77,49 79,49 79,49 81,49 81,49 83,49 83,50 85,50 85,50 85,50 85,51 86,51 86,51 86,51 86,51 86,51 86,52 86,52 86,51 86,51 86,51 87,51 87,51 87,51 87,51 87,51 87,50 88,50 88,50 88,50 88,50 89,50 89,50 89,50 89,49 90,49 90,49 91,49 91,49 93,49 93,48 93,48 93,47 93,47 93,46 93,46 93,40 93,40 93,38 93,38 93,41 93,41 93,42 93,42 93,43 93,43 93,43 93,43 93,44 91,44 91,42 85,42 85,42 81,42 81,41 79,41 79,41 78,41 78,40 73,40 73,40 71,40 71,39 69,39 69,38 48,38 48,39 45,39 45,39 45,39 45,40 43,40 43,40 42,40 42,40 42,40 42,40 40,40 40,41 38,41 38,42 36,42 36,42 35,42 35,42 35,42 35,42 "/>
   <path class="fil8" d="M3 76l0 0 0 2 0 0 0 1 1 0 0 1 0 0 0 0 0 0 0 1 0 0 0 1 1 0 0 0 0 0 0 1 0 0 0 0 0 0 0 1 1 0 0 0 0 0 0 1 0 0 0 0 0 0 0 1 1 0 0 0 0 0 0 1 0 0 0 0 0 0 0 1 1 0 0 0 0 0 0 1 0 0 0 0 0 0 0 0 1 0 0 1 0 0 0 0 0 0 0 1 0 0 0 0 1 0 0 0 0 0 0 1 0 0 0 0 0 0 0 1 1 0 0 0 0 0 0 0 0 0 0 1 0 0 0 0 0 0 0 0 1 0 0 1 0 0 0 0 0 0 0 0 0 0 0 1 1 0 0 0 0 0 0 0 0 0 0 1 0 0 0 0 1 0 0 0 0 0 0 0 0 0 0 1 0 0 0 0 1 0 0 0 0 0 0 1 0 0 0 0 0 0 0 0 1 0 0 1 0 0 0 0 0 0 0 0 0 0 0 0 1 0 0 1 0 0 0 0 0 0 0 0 0 0 0 0 1 0 0 1 0 0 0 0 0 0 0 0 1 0 0 0 0 0 0 1 0 0 0 0 0 0 0 0 1 0 0 0 0 0 0 0 0 0 0 1 0 0 0 0 1 0 0 0 0 0 0 0 0 0 0 1 1 0 0 0 0 0 0 0 0 0 0 0 0 0 0 1 1 0 0 0 0 0 0 0 0 0 0 0 1 0 0 1 0 0 0 0 0 0 0 0 1 0 0 0 0 0 0 1 0 0 0 0 1 0 0 0 0 0 0 0 0 0 0 1 1 0 0 0 0 0 0 0 1 0 0 0 0 0 0 1 0 0 0 0 1 0 0 0 0 0 0 0 0 0 1 0 0 1 0 0 0 0 0 0 0 0 0 0 0 0 1 0 0 0 0 0 0 1 1 0 0 0 0 0 0 0 0 0 0 0 1 0 0 0 0 1 0 0 0 0 0 0 1 0 0 0 0 0 1 0 0 0 0 0 0 0 0 1 0 0 1 0 0 0 0 0 0 0c0,0 0,0 0,0l1 0 0 0 0 0 0 0 0 0c0,0 1,1 1,1l0 0 0 0 0 0 1 0 0 0 0 0 0 0 0 0c0,0 1,0 1,0l0 0 0 0c0,0 0,0 0,1l1 0 0 0c0,0 0,0 0,0l1 0 0 0c0,0 0,0 0,0l1 0 0 0c0,0 0,0 0,0l0 0 0 0c0,0 1,0 1,1l0 0 0 0c0,0 0,0 1,0l0 0 0 0c0,0 1,0 1,0l0 0 0 0c1,0 1,0 1,0l0 0 0 0c0,0 1,0 1,1l0 0 0 0c1,0 1,0 2,0l0 0 0 0c2,0 5,0 7,0l4 0c19,0 36,-10 47,-25l0 0 0 0c0,-1 1,-1 1,-2l0 0 0 0c1,-1 2,-3 3,-4l0 0 0 0c0,0 0,-1 0,-1l0 0 0 0c0,0 0,0 0,0l0 0 0 0c0,0 0,-1 0,-1l0 0 0 0c0,0 1,0 1,0l0 0 0 0c0,0 0,-1 0,-1l0 0 0 0c0,0 1,-1 1,-2l0 0 0 0c0,0 0,-1 0,-1l0 0 0 0c1,-1 1,-1 1,-1l0 0 0 0c0,-1 1,-2 1,-3l0 0 0 0c0,-1 0,-1 0,-1l0 0 0 0c0,-1 0,-1 1,-2l0 0 0 0c0,0 0,0 0,-1l0 0 0 0c0,-1 0,-2 1,-3l0 0 0 0c0,-1 0,-1 0,-2l0 0 0 0c0,-3 1,-6 1,-9 0,-3 -1,-6 -1,-9l0 0 0 0c-2,-12 -7,-22 -15,-31l0 0 0 1 0 0 0 0 0 0 0 0 1 0 0 1 0 0 0 0 0 0 0 0 0 0 0 1 1 0 0 0 0 0 0 0 0 0 0 0 0 0 0 1 1 0 0 0 0 0 0 0 0 0 0 1 0 0 0 0 1 0 0 0 0 0 0 1 0 0 0 0 0 0 0 0 1 0 0 1 0 0 0 0 0 0 0 1 0 0 0 0 0 0 0 0 1 0 0 1 0 0 0 0 0 0 0 1 0 0 0 0 1 0 0 0 0 0 0 1 0 0 0 0 0 0 0 0 1 0 0 1 0 0 0 0 0 0 0 1 0 0 0 0 1 0 0 1 0 0 0 0 0 0 0 1 0 0 0 0 1 0 0 1 0 0 0 0 0 0 0 1 0 0 0 1 1 0 0 0 0 0 0 1 0 0 0 1 0 0 0 0 1 0 0 1 0 0 0 1 0 0 0 0 0 0 0 1 1 0 0 1 0 0 0 1 0 0 0 1 0 0 0 1 1 0 0 1 0 0 0 1 0 0 0 1 -1 0 0 0 -2 0 0 3 1 0 0 2 0 0 0 10 0 0 0 2 -1 0 0 2 0 0 0 2 0 0 0 1 0 0 0 1 -1 0 0 1 0 0 0 1 0 0 0 1 0 0 0 1 -1 0 0 0 0 0 0 1 0 0 0 1 0 0 0 0 -1 0 0 1 0 0 0 1 0 0 0 0 0 0 0 1 -1 0 0 0 0 0 0 1 0 0 0 1 0 0 0 0 -1 0 0 1 0 0 0 0 0 0 0 1 0 0 0 0 -1 0 0 1 0 0 0 0 0 0 0 1 0 0 0 0 0 0 0 0 -1 0 0 1 0 0 0 0 0 0 0 0 0 0 0 1 -1 0 0 0 0 0 0 1 0 0 0 0 0 0 0 0 -1 0 0 1 0 0 0 0 0 0 0 0 0 0 0 1 -1 0 0 0 0 0 0 0 0 0 0 1 0 0 0 0 -1 0 0 0 0 0 0 1 0 0 0 0 0 0 0 0 -1 0 0 1 0 0 0 0 0 0 0 0 0 0 0 0 -1 0 0 1 0 0 0 0 0 0 0 0 0 0 0 1 -1 0 0 0 0 0 0 0 0 0 0 0 0 0 0 1 -1 0 0 0 0 0 0 0 0 0 0 0 0 0 0 1 -1 0 0 0 0 0 0 0 0 0 0 0 0 0 0 1 -1 0 0 0 0 0 0 0 0 0 0 0 0 0 0 1 0 0 0 0 -1 0 0 0 0 0 0 0 0 0 0 1 -1 0 0 0 0 0 0 1 0 0 0 0 1 0 0 -1 0 0 0 0 0 0 0 0 1 0 0 0 0 0 0 0 0 0 0 -1 0 0 0 0 0 0 0 0 1 0 0 0 0 0 0 0 0 0 0 0 1 0 0 0 0 0 0 0 0 0 0 -1 1 0 0 1 0 0 0 0 0 0 0 -1 1 0 0 0 0 0 0 0 0 0 0 0 0 0 0 1 0 0 0 0 -1 0 0 0 0 0 0 0 0 0 0 1 0 0 0 0 -1 0 0 0 0 0 0 0 0 0 0 1 0 0 0 0 -1 0 0 0 0 0 0 0 0 0 0 0 -1 0 0 1 0 0 0 0 0 0 0 0 0 0 0 0 0 0 0 1 -1 0 0 0 0 0 0 0 0 0 0 0 -1 0 0 1 0 0 0 0 0 0 0 0 -1 0 0 0 0 0 0 1 0 0 0 0 -1 0 0 0 0 0 0 0 0 0 0 1 -1 0 0 0 0 0 0 0 -1 0 0 0 0 0 0 1 0 0 0 0 -1 0 0 0 0 0 0 0 -1 0 0 1 0 0 0 0 0 0 0 0 -1 0 0 0 0 0 0 1 -1 0 0 0 0 0 0 0 -1 0 0 0 0 0 0 1 0 0 0 0 -1 0 0 0 0 0 0 0 -1 0 0 1 0 0 0 0 -1 0 0 0 -1 0 0 0 0 0 0 1 -1 0 0 0 -1 0 0 0 0 0 0 0 -1 0 0 1 -1 0 0 0 0 0 0 0 -1 0 0 0 -1 0 0 1 0 0 0 0 -2 0 0 0 0 0 0 0 -2 0 0 1 0 0 0 0 -2 0 0 0 -1 0 0 0 -2 0 0 1 -2 0 0 0 -7 0 0 0 1 0 0 -1 0 0 0 0 1 0 0 -1 0 0 0 0 1 0 0 0 1 0 0 0 0 0 0 -1 1 0 0 0 -6 0 0 0 -3 0 0 0 -3 0 0 -1 -1 0 0 0 -2 0 0 0 -1 0 0 0 -1 0 0 -1 -1 0 0 0 -1 0 0 0 0 0 0 0 -1 0 0 -1 -1 0 0 0 0 0 0 0 -1 0 0 0 -1 0 0 -1 -1 0 0 0 0 0 0 0 -1 0 0 0 0 0 0 -1 -1 0 0 0 -1 0 0 0 0 0 0 0 -1 0 0 -1 0 0 0 0 -1 0 0 0 0 0 0 0 -1 0 0 -1 0 0 0 0 -1 0 0 0 0 0 0 0 0 0 0 -1 -1 0 0 0 0 0 0 0 -1 0 0 0 0 0 0 -1 0 0 0 0 -1 0 0 0 0 0 0 0 0 0 0 -1 -1 0 0 0 0 0 0 0 -1 0 0 0 0 0 0 -1 0 0 0 0 -1 0 0 0 0 0 0 0 0 0 0 -1 -1 0 0 0 0 0 0 0 0 0 0 0 -1 0 0 0 0 0 0 -1 0 0 0 0 0 0 0 0 -1 0 0 0 0 0 0 -1 0 0 0 0 -1 0 0 0 0 0 0 0 0 0 0 -1 0 0 0 0 0 0 0 0 -1 0 0 0 0 0 0 -1 0 0 0 0 0 0 0 0 -1 0 0 0 -1 0 0 0 1 0 0 0 -1 0 0 0 -1 0 0 1 0 0 0 0 -1 0 0 -1 0 0 0 0 -1 0 0 0 0 0 0 0 0 0 0 -1 0 0 0 0 -1 0 0 0 0 0 0 -1 0 0 0 0 0 0 0 0 -1 0 0 0 0 0 0 -1 0 0 0 0 0 0 0 0 -1 0 0 -1 0 0 0 0 0 0 0 0 0 0 0 -1 -1 0 0 0 0 0 0 0 0 0 0 -1 0 0 0 0 -1 0 0 0 0 0 0 -1 0 0 0 0 0 0 0 -1 0 0 0 0 -1 0 0 0 0 0 0 -1 0 0 0 0 0 0 0 0 -1 0 0 -1 0 0 0 0 0 0 0 -1 0 0 0 0 -1 0 0 0 0 0 0 -1 0 0 0 0 0 0 0 -1 -1 0 0 0 0 0 0 -1 0 0 0 0 0 0 0 -1 -1 0 0 0 0 0 0 -1 0 0 0 0 0 0 0 -1 -1 0 0 -1 0 0 0 0 0 0 0 -1 0 0 0 0 -1 0 0 -1 0 0 0 -1 0 0 0 -1 0 0 0 0 -1 0 0 -1z"/>
   <polygon class="fil9" points="49,60 49,61 49,61 49,61 50,61 50,62 50,62 50,63 50,63 50,63 50,63 50,64 51,64 51,65 51,65 51,65 51,65 51,66 51,66 51,66 52,66 52,67 52,67 52,68 52,68 52,68 52,68 52,69 53,69 53,69 53,69 53,70 48,70 48,69 48,69 48,69 48,69 48,68 47,68 47,67 47,67 47,67 47,67 47,66 47,66 47,66 46,66 46,65 39,65 39,66 39,66 39,66 39,66 39,68 40,68 40,68 41,68 41,70 41,70 41,71 41,71 41,71 42,71 42,71 42,71 42,71 43,71 43,71 43,71 43,71 43,71 43,72 43,72 43,72 43,72 43,73 43,73 43,73 43,73 43,73 44,73 44,73 44,73 44,74 45,74 45,74 45,74 45,74 45,74 45,75 45,75 45,75 46,75 46,75 46,75 46,76 47,76 47,76 47,76 47,76 47,76 47,77 47,77 47,77 49,77 49,77 49,77 49,78 49,78 49,78 50,78 50,78 52,78 52,79 53,79 53,79 54,79 54,80 55,80 55,80 56,80 56,80 63,80 63,80 64,80 64,80 65,80 65,79 65,79 65,79 66,79 66,79 67,79 67,78 69,78 69,78 70,78 70,77 71,77 71,77 71,77 71,77 71,77 71,77 72,77 72,77 72,77 72,76 72,76 72,76 73,76 73,75 74,75 74,75 74,75 74,74 74,74 74,74 75,74 75,74 75,74 75,73 75,73 75,73 76,73 76,73 76,73 76,72 76,72 76,72 77,72 77,72 77,72 77,71 77,71 77,71 77,71 77,71 77,71 77,71 77,71 77,70 76,70 76,56 76,56 76,54 73,54 73,54 72,54 72,70 67,70 67,70 67,70 67,70 67,70 67,69 67,69 67,69 66,69 66,68 66,68 66,68 66,68 66,68 66,68 66,67 65,67 65,67 65,67 65,66 65,66 65,66 65,66 65,66 65,66 65,65 64,65 64,65 64,65 64,64 64,64 64,64 64,64 64,63 63,63 63,63 63,63 63,63 63,63 63,62 63,62 63,62 62,62 62,61 62,61 62,61 62,61 62,61 62,61 62,60 61,60 61,60 61,60 61,59 61,59 61,59 61,59 61,59 60,59 60,58 60,58 60,58 60,58 60,58 60,58 60,57 59,57 59,57 59,57 59,70 55,70 55,64 55,64 55,63 54,63 54,62 54,62 54,62 52,62 52,61 50,61 50,60 49,60 49,60 "/>
   <polygon class="fil10" points="55,16 53,16 53,16 51,16 51,16 50,16 50,16 49,16 49,17 48,17 48,17 47,17 47,17 46,17 46,17 45,17 45,18 45,18 45,18 44,18 44,18 43,18 43,18 43,18 43,19 42,19 42,19 42,19 42,19 41,19 41,19 41,19 41,20 40,20 40,20 40,20 40,20 39,20 39,20 39,20 39,21 39,21 39,21 40,21 40,21 40,21 40,22 40,22 40,22 39,22 39,22 38,22 38,22 39,22 39,23 38,23 38,24 40,24 40,24 39,24 39,25 39,25 39,25 40,25 40,26 41,26 41,26 42,26 42,26 42,26 42,27 39,27 39,27 40,27 40,27 40,27 40,28 45,28 45,28 46,28 46,28 52,28 52,28 54,28 54,28 65,28 65,28 73,28 73,28 79,28 79,27 81,27 81,27 82,27 82,27 81,27 81,27 82,27 82,26 82,26 82,26 81,26 81,26 80,26 80,26 80,26 80,25 78,25 78,25 79,25 79,24 81,24 81,24 81,24 81,23 82,23 82,23 82,23 82,22 81,22 81,22 81,22 81,22 81,22 81,21 80,21 80,21 80,21 80,21 79,21 79,21 79,21 79,20 79,20 79,20 78,20 78,20 78,20 78,20 77,20 77,19 77,19 77,19 76,19 76,19 76,19 76,19 75,19 75,18 75,18 75,18 74,18 74,18 73,18 73,18 73,18 73,17 72,17 72,17 71,17 71,17 70,17 70,17 69,17 69,16 68,16 68,16 67,16 67,16 65,16 65,16 64,16 64,15 55,15 "/>
   <polygon class="fil10" points="44,104 45,104 45,104 45,104 45,104 47,104 47,104 47,104 47,105 48,105 48,105 50,105 50,105 51,105 51,105 53,105 53,106 56,106 56,106 63,106 63,106 65,106 65,105 67,105 67,105 69,105 69,105 70,105 70,105 71,105 71,104 72,104 72,104 73,104 73,104 74,104 74,104 74,104 74,103 75,103 75,103 76,103 76,103 76,103 76,103 77,103 77,103 77,103 77,102 78,102 78,102 79,102 79,102 79,102 79,102 80,102 80,101 80,101 80,101 81,101 81,101 81,101 81,101 82,101 82,100 82,100 82,100 83,100 83,100 83,100 83,100 83,100 83,99 84,99 84,99 84,99 84,99 85,99 85,99 85,99 85,98 85,98 85,98 86,98 86,98 86,98 86,98 86,98 86,97 87,97 87,97 87,97 87,97 87,97 87,97 88,97 88,96 88,96 88,96 88,96 88,96 89,96 89,96 89,96 89,95 89,95 89,95 89,95 89,95 90,95 90,95 90,95 90,94 90,94 90,94 91,94 91,94 91,94 91,94 91,94 91,93 91,93 91,93 92,93 92,93 92,93 92,93 92,93 92,92 92,92 92,92 93,92 93,92 93,92 93,92 93,92 93,91 93,91 93,91 94,91 94,91 94,91 94,91 94,91 94,90 94,90 94,90 95,90 95,90 95,90 95,90 95,90 95,89 95,89 95,89 96,89 96,89 96,89 96,88 96,88 96,88 96,88 96,88 97,88 97,88 97,88 97,87 97,87 97,87 97,87 97,87 97,87 97,86 98,86 98,86 98,86 98,86 98,86 98,85 98,85 98,85 99,85 99,85 99,85 99,84 99,84 99,84 99,84 99,84 100,84 100,83 100,83 100,83 100,83 100,83 99,83 99,83 99,83 99,84 99,84 99,84 99,84 99,84 98,84 98,85 98,85 98,85 98,85 98,85 98,85 98,86 97,86 97,86 97,86 97,86 97,86 97,86 97,86 97,87 97,87 97,87 96,87 96,87 96,87 96,87 96,87 96,88 96,88 96,88 95,88 95,88 95,88 95,88 95,88 95,88 95,88 95,89 94,89 94,89 94,89 94,89 94,89 94,89 93,89 93,90 93,90 93,90 93,90 93,90 93,90 93,90 92,90 92,91 92,91 92,91 92,91 92,91 91,91 91,91 91,91 91,92 91,92 91,92 90,92 90,92 90,92 90,92 90,92 90,93 89,93 89,93 89,93 89,93 88,93 88,93 88,93 88,94 88,94 88,94 87,94 87,94 87,94 87,94 86,94 86,95 86,95 86,95 86,95 86,95 85,95 85,95 85,95 85,96 84,96 84,96 84,96 84,96 83,96 83,96 83,96 83,97 82,97 82,97 82,97 82,97 81,97 81,97 80,97 80,98 80,98 80,98 79,98 79,98 78,98 78,98 77,98 77,99 77,99 77,99 76,99 76,99 75,99 75,99 74,99 74,100 73,100 73,100 71,100 71,100 69,100 69,100 66,100 66,101 60,101 60,100 58,100 58,100 56,100 56,100 54,100 54,100 52,100 52,99 51,99 51,99 50,99 50,99 49,99 49,99 48,99 48,98 47,98 47,98 46,98 46,98 44,98 44,98 44,98 44,98 45,98 45,99 44,99 44,99 44,99 44,99 45,99 45,99 45,99 45,103 44,103 "/>
   <polygon class="fil2" points="72,70 72,49 68,49 68,63 67,63 67,62 67,62 67,62 67,62 67,61 67,61 67,61 66,61 66,61 66,61 66,60 66,60 66,60 66,60 66,59 65,59 65,59 65,59 65,59 65,59 65,58 65,58 65,58 65,58 65,58 64,58 64,57 64,57 64,57 64,57 64,56 64,56 64,56 63,56 63,56 63,56 63,55 63,55 63,55 63,55 63,54 62,54 62,54 62,54 62,53 62,53 62,53 62,53 62,53 61,53 61,52 61,52 61,52 61,52 61,51 61,51 61,51 60,51 60,51 60,51 60,50 60,50 60,50 60,50 60,49 59,49 59,49 55,49 55,70 59,70 59,57 59,57 59,57 60,57 60,58 60,58 60,58 60,58 60,58 60,58 60,59 61,59 61,59 61,59 61,59 61,59 61,60 61,60 61,60 62,60 62,61 62,61 62,61 62,61 62,61 62,61 62,62 63,62 63,62 63,62 63,63 63,63 63,63 63,63 63,63 64,63 64,64 64,64 64,64 64,64 64,65 64,65 64,65 65,65 65,66 65,66 65,66 65,66 65,66 65,66 65,67 65,67 65,67 66,67 66,68 66,68 66,68 66,68 66,68 66,68 66,69 67,69 67,69 67,69 67,70 67,70 67,70 67,70 67,70 "/>
   <path class="fil2" d="M40 61l0 0 0 0 0 0 0 -1 0 0 0 -1 1 0 0 0 0 0 0 -1 0 0 0 0 0 0 0 -1 1 0 0 -1 0 0 0 0 0 0 0 -1 1 0 0 0 0 0 0 1 0 0 0 1 0 0 0 0 0 0 0 1 1 0 0 1 0 0 0 0 0 0 0 1 0 0 0 0 1 0 0 1 0 0 0 1 0 0 0 0 -5 0 0 -1zm9 -1l0 0 0 0 0 0 0 -1 -1 0 0 0 0 0 0 -1 0 0 0 -1 0 0 0 0 -1 0 0 -1 0 0 0 0 0 0 0 -1 0 0 0 -1 -1 0 0 0 0 0 0 -1 0 0 0 -1 0 0 0 0 -1 0 0 -1 0 0 0 0 0 0 0 -1 0 0 0 -1 -1 0 0 0 -4 0 0 1 0 0 0 0 0 0 0 1 -1 0 0 1 0 0 0 0 0 0 0 1 0 0 0 1 -1 0 0 0 0 0 0 1 0 0 0 0 0 0 0 1 -1 0 0 1 0 0 0 0 0 0 0 1 0 0 0 1 -1 0 0 0 0 0 0 1 0 0 0 0 0 0 0 1 -1 0 0 0 0 0 0 1 0 0 0 1 0 0 0 0 -1 0 0 1 0 0 0 1 0 0 0 0 0 0 0 1 -1 0 0 1 0 0 0 0 0 0 0 1 0 0 0 0 -1 0 0 1 0 0 0 1 0 0 0 0 5 0 0 -1 0 0 0 0 0 0 0 -1 0 0 0 -1 1 0 0 0 0 0 0 -1 0 0 0 -1 8 0 0 1 1 0 0 0 0 0 0 1 0 0 0 0 0 0 0 1 1 0 0 1 0 0 0 0 0 0 0 1 5 0 0 -1 0 0 0 0 -1 0 0 -1 0 0 0 0 0 0 0 -1 0 0 0 -1 -1 0 0 0 0 0 0 -1 0 0 0 0 0 0 0 -1 -1 0 0 -1 0 0 0 0 0 0 0 -1 0 0 0 -1 -1 0 0 0 0 0 0 -1z"/>
   <path class="fil2" d="M28 57l0 0 0 1 0 0 0 0 -1 0 0 0 0 0 0 0 0 0 0 1 -2 0 0 0 -4 0 0 -6 5 0 0 0 1 0 0 0 0 0 0 0 0 0 0 1 1 0 0 0 0 0 0 0 0 0 0 1 0 0 0 2 0 0 0 0zm-7 13l0 -8 6 0 0 0 2 0 0 0 0 0 0 -1 1 0 0 0 0 0 0 0 1 0 0 0 0 0 0 -1 0 0 0 0 0 0 0 0 1 0 0 -1 0 0 0 0 0 0 0 0 0 0 0 -1 0 0 0 -1 1 0 0 -3 -1 0 0 -1 0 0 0 -1 0 0 0 0 0 0 0 0 0 0 0 -1 -1 0 0 0 0 0 0 0 0 0 0 0 0 0 0 -1 -1 0 0 0 0 0 0 0 -1 0 0 0 0 0 0 -1 -1 0 0 0 -11 0 0 21 4 0z"/>
   <polygon class="fil2" points="86,52 86,52 86,52 86,52 86,52 86,53 85,53 85,53 85,53 85,53 85,53 85,54 85,54 85,54 84,54 84,55 84,55 84,56 84,56 84,57 84,57 84,62 84,62 84,63 84,63 84,64 84,64 84,65 85,65 85,65 85,65 85,66 85,66 85,66 85,66 85,66 86,66 86,67 86,67 86,67 86,67 86,67 86,67 86,68 86,68 86,68 87,68 87,68 87,68 87,68 87,68 87,69 88,69 88,69 88,69 88,69 89,69 89,69 89,69 89,70 90,70 90,70 91,70 91,70 95,70 95,70 96,70 96,70 97,70 97,69 97,69 97,69 98,69 98,69 98,69 98,69 98,69 98,68 99,68 99,68 99,68 99,68 99,68 99,68 99,68 99,67 100,67 100,67 100,67 100,67 100,67 100,66 100,66 100,66 101,66 101,65 101,65 101,65 101,65 101,64 101,64 101,63 102,63 102,63 101,63 101,63 100,63 100,63 100,63 100,62 99,62 99,62 98,62 98,62 97,62 97,63 97,63 97,63 97,63 97,64 97,64 97,64 97,64 97,65 96,65 96,65 96,65 96,65 96,65 96,65 96,65 96,66 95,66 95,66 95,66 95,66 94,66 94,66 92,66 92,66 91,66 91,66 90,66 90,66 90,66 90,65 90,65 90,65 89,65 89,65 89,65 89,64 89,64 89,64 89,64 89,64 88,64 88,63 88,63 88,62 88,62 88,57 88,57 88,56 88,56 88,55 89,55 89,55 89,55 89,55 89,55 89,54 89,54 89,54 90,54 90,54 90,54 90,53 90,53 90,53 91,53 91,53 92,53 92,53 94,53 94,53 95,53 95,53 95,53 95,53 96,53 96,54 96,54 96,54 96,54 96,54 97,54 97,54 97,54 97,55 97,55 97,55 97,55 97,56 98,56 98,56 100,56 100,56 101,56 101,55 101,55 101,54 101,54 101,54 101,54 101,53 101,53 101,53 100,53 100,52 100,52 100,52 100,52 100,52 100,52 100,51 99,51 99,51 99,51 99,51 99,51 99,51 98,51 98,50 98,50 98,50 98,50 98,50 97,50 97,50 97,50 97,49 96,49 96,49 95,49 95,49 91,49 91,49 90,49 90,49 89,49 89,50 89,50 89,50 88,50 88,50 88,50 88,50 87,50 87,51 87,51 87,51 87,51 87,51 86,51 86,51 86,51 86,52 "/>
   <polygon class="fil11" points="19,93 19,94 19,94 19,94 19,94 19,94 20,94 20,94 20,94 20,95 20,95 20,95 21,95 21,96 21,96 21,96 22,96 22,96 22,96 22,97 22,97 22,97 23,97 23,98 23,98 23,98 23,98 23,98 24,98 24,99 24,99 24,99 24,99 24,99 25,99 25,100 25,100 25,100 26,100 26,100 26,100 26,101 27,101 27,101 27,101 27,101 27,101 27,102 28,102 28,102 28,102 28,102 29,102 29,102 29,102 29,103 30,103 30,103 30,103 30,104 31,104 31,104 31,104 31,104 32,104 32,104 32,104 32,105 33,105 33,105 33,105 33,105 33,105 33,106 34,106 34,106 35,106 35,106 35,106 35,106 36,106 36,107 36,107 36,107 37,107 37,107 37,107 37,107 38,107 38,108 38,108 38,108 39,108 39,108 40,108 40,108 41,108 41,108 42,108 42,108 41,108 41,108 42,108 42,107 42,107 42,107 42,107 42,107 44,107 44,106 44,106 44,106 45,106 45,106 45,106 45,105 45,105 45,105 46,105 46,105 46,105 46,105 46,105 46,104 46,104 46,104 45,104 45,104 45,104 45,104 44,104 44,103 43,103 43,103 42,103 42,103 42,103 42,103 41,103 41,103 41,103 41,102 40,102 40,102 40,102 40,102 39,102 39,102 38,102 38,101 38,101 38,101 37,101 37,101 37,101 37,101 36,101 36,100 36,100 36,100 36,100 36,100 35,100 35,100 35,100 35,99 34,99 34,99 34,99 34,99 33,99 33,99 33,99 33,98 33,98 33,98 32,98 32,98 32,98 32,98 32,98 32,97 32,97 32,97 31,97 31,97 31,97 31,97 31,97 31,96 30,96 30,96 30,96 30,96 30,96 30,96 29,96 29,95 29,95 29,95 29,95 29,95 28,95 28,95 28,95 28,94 28,94 28,94 28,94 28,94 27,94 27,94 27,94 27,93 27,93 27,93 26,93 26,93 26,93 26,93 26,93 26,92 26,92 26,92 25,92 25,92 25,92 25,91 25,91 25,91 25,91 25,91 24,91 24,91 24,91 24,90 24,90 24,90 24,90 24,90 23,90 23,90 23,90 23,89 23,89 23,89 23,89 23,89 22,89 22,88 22,88 22,89 22,89 22,89 22,89 22,89 22,89 22,90 22,90 22,90 21,90 21,90 21,90 21,91 20,91 20,91 20,91 20,91 19,91 19,92 20,92 20,92 19,92 19,93 "/>
   <polygon class="fil12" points="101,36 101,37 102,37 102,38 102,38 102,38 102,38 102,38 102,38 102,39 103,39 103,39 103,39 103,40 103,40 103,41 104,41 104,41 104,41 104,42 104,42 104,43 104,43 104,44 105,44 105,44 105,44 105,45 105,45 105,46 105,46 105,47 106,47 106,48 106,48 106,49 106,49 106,52 106,52 106,54 107,54 107,64 107,64 107,61 108,61 108,62 108,62 108,64 108,64 108,62 108,62 108,63 109,63 109,62 109,62 109,62 109,62 109,62 111,62 111,60 111,60 111,62 111,62 111,62 111,62 111,62 112,62 112,62 112,62 112,63 112,63 112,56 112,56 112,54 112,54 112,51 111,51 111,49 111,49 111,48 111,48 111,47 111,47 111,45 110,45 110,44 110,44 110,44 110,44 110,43 110,43 110,42 109,42 109,42 109,42 109,41 109,41 109,40 109,40 109,39 108,39 108,39 108,39 108,38 108,38 108,37 108,37 108,37 108,37 108,36 107,36 107,36 107,36 107,36 107,36 107,35 106,35 106,34 106,34 106,34 106,34 106,34 105,34 105,35 105,35 105,35 105,35 105,35 105,35 105,35 104,35 104,36 104,36 104,36 104,36 104,36 102,36 102,37 102,37 102,37 102,37 102,37 102,37 102,37 102,37 102,36 "/>
   <polygon class="fil0" points="98,62 98,61 97,61 97,61 98,61 98,60 98,60 98,57 98,57 98,56 97,56 97,55 97,55 97,55 97,55 97,54 97,54 97,54 96,54 96,54 96,54 96,54 96,54 96,53 95,53 95,53 95,53 95,53 94,53 94,53 92,53 92,53 91,53 91,53 90,53 90,53 90,53 90,54 90,54 90,54 89,54 89,54 89,54 89,55 89,55 89,55 89,55 89,55 88,55 88,56 88,56 88,57 88,57 88,62 88,62 88,63 88,63 88,64 89,64 89,64 89,64 89,64 89,64 89,65 89,65 89,65 90,65 90,65 90,65 90,66 90,66 90,66 91,66 91,66 92,66 92,66 94,66 94,66 95,66 95,66 95,66 95,66 96,66 96,65 96,65 96,65 96,65 96,65 96,65 96,65 97,65 97,64 97,64 97,64 97,64 97,63 97,63 97,63 97,63 97,62 "/>
   <polygon class="fil2" points="76,70 80,70 80,49 76,49 "/>
   <polygon class="fil0" points="44,104 44,103 45,103 45,99 45,99 45,99 44,99 44,99 44,99 44,99 45,99 45,98 44,98 44,98 44,98 44,98 45,98 45,98 44,98 44,97 44,97 44,97 43,97 43,97 42,97 42,97 42,97 42,96 41,96 41,96 40,96 40,96 40,96 40,96 39,96 39,95 39,95 39,95 38,95 38,95 37,95 37,95 37,95 37,94 36,94 36,94 36,94 36,94 35,94 35,94 35,94 35,93 34,93 34,93 34,93 34,93 33,93 33,93 33,93 33,92 32,92 32,92 32,92 32,92 31,92 31,93 31,93 31,93 31,93 31,93 31,93 31,95 31,95 31,96 31,96 31,96 31,96 31,96 31,96 31,96 31,96 31,97 31,97 31,97 32,97 32,97 32,97 32,98 32,98 32,98 32,98 32,98 33,98 33,98 33,98 33,99 33,99 33,99 34,99 34,99 34,99 34,99 35,99 35,100 35,100 35,100 36,100 36,100 36,100 36,100 36,100 36,101 37,101 37,101 37,101 37,101 38,101 38,101 38,101 38,102 39,102 39,102 40,102 40,102 40,102 40,102 41,102 41,103 41,103 41,103 42,103 42,103 42,103 42,103 43,103 43,103 44,103 44,104 "/>
   <polygon class="fil0" points="21,59 25,59 25,59 27,59 27,58 27,58 27,58 27,58 27,58 28,58 28,58 28,58 28,57 28,57 28,57 28,57 28,55 28,55 28,54 28,54 28,54 28,54 28,54 27,54 27,53 27,53 27,53 27,53 27,53 26,53 26,53 21,53 "/>
   <polygon class="fil9" points="42,56 42,56 42,56 42,56 42,57 41,57 41,58 41,58 41,58 41,58 41,59 41,59 41,59 40,59 40,60 40,60 40,61 40,61 40,61 40,61 40,62 45,62 45,62 45,62 45,61 45,61 45,60 44,60 44,60 44,60 44,59 44,59 44,59 44,59 44,58 43,58 43,57 43,57 43,57 43,57 43,56 43,56 43,55 43,55 43,55 42,55 "/>
  </g>
 </g>
</svg>
