<?xml version="1.0" encoding="UTF-8"?>
<!DOCTYPE svg PUBLIC "-//W3C//DTD SVG 1.1//EN" "http://www.w3.org/Graphics/SVG/1.1/DTD/svg11.dtd">
<!-- Creator: CorelDRAW X8 -->
<svg xmlns="http://www.w3.org/2000/svg" xml:space="preserve" width="209.901mm" height="230.508mm" version="1.1" style="shape-rendering:geometricPrecision; text-rendering:geometricPrecision; image-rendering:optimizeQuality; fill-rule:evenodd; clip-rule:evenodd"
viewBox="0 0 20981 23041"
 xmlns:xlink="http://www.w3.org/1999/xlink">
 <defs>
  <style type="text/css">
   <![CDATA[
    .fil0 {fill:#D59710}
   ]]>
  </style>
 </defs>
 <g id="Layer_x0020_1">
  <metadata id="CorelCorpID_0Corel-Layer"/>
  <g id="Layer_2" data-name="Layer 2">
   <g id="Layer_1-2" data-name="Layer 1">
    <g id="Home_scereen_2" data-name="Home scereen 2">
     <g id="Navi_button" data-name="Navi button">
      <g id="Group_87" data-name="Group 87">
       <g id="Vector_Smart_Object-4" data-name="Vector Smart Object-4">
        <g id="Group_7" data-name="Group 7">
         <g id="Group_6" data-name="Group 6">
          <path id="Path_5-2" class="fil0" d="M20981 18616c-558,-4048 -3307,-7462 -7143,-8869 -997,636 -2155,975 -3338,975 -1183,0 -2342,-339 -3338,-975 -3845,1399 -6604,4814 -7162,8868 2755,2829 6542,4426 10490,4426 3819,0 7492,-1494 10225,-4158l266 -267z" data-name="Path 5-2"/>
          <path id="Path_6-2" class="fil0" d="M14772 4263c-10,-2357 -1924,-4263 -4282,-4263 -2364,0 -4282,1918 -4282,4282 0,2365 1918,4282 4282,4282l0 0c0,0 0,0 0,0 2365,0 4282,-1917 4282,-4282 0,-6 0,-12 0,-19l0 0z" data-name="Path 6-2"/>
         </g>
        </g>
       </g>
      </g>
     </g>
    </g>
   </g>
  </g>
 </g>
</svg>
