<?xml version="1.0" encoding="UTF-8"?>
<!DOCTYPE svg PUBLIC "-//W3C//DTD SVG 1.1//EN" "http://www.w3.org/Graphics/SVG/1.1/DTD/svg11.dtd">
<!-- Creator: CorelDRAW X8 -->
<svg xmlns="http://www.w3.org/2000/svg" xml:space="preserve" width="5.7537mm" height="6.1892mm" version="1.1" style="shape-rendering:geometricPrecision; text-rendering:geometricPrecision; image-rendering:optimizeQuality; fill-rule:evenodd; clip-rule:evenodd"
viewBox="0 0 572 615"
 xmlns:xlink="http://www.w3.org/1999/xlink">
 <defs>
  <style type="text/css">
   <![CDATA[
    .fil0 {fill:#D59710}
   ]]>
  </style>
 </defs>
 <g id="Layer_x0020_1">
  <metadata id="CorelCorpID_0Corel-Layer"/>
  <path class="fil0" d="M343 111c-1,0 -2,0 -3,1 -2,0 -7,0 -10,0 -1,1 0,1 -3,2 -2,0 -4,0 -6,0 -2,0 -4,0 -6,1 0,0 1,0 0,0 -3,2 -11,1 -13,2 -2,0 -1,1 -4,1 -4,1 -4,1 -9,1 -3,0 -2,1 -5,1 -7,2 -9,0 -12,2 -7,3 -11,0 -17,3 -3,2 -7,-1 -14,2 -4,2 -8,0 -11,1 0,0 -1,1 -1,1 0,0 0,0 0,0l-1 0c0,0 0,0 0,0l-1 1c-2,0 -4,0 -6,0 -8,0 -7,2 -11,2 -2,1 -7,0 -9,1l-3 1c1,0 1,0 1,0 -15,0 -6,0 -15,2l0 1c0,0 0,0 0,0 -2,0 -2,0 -3,0 -3,0 -6,-1 -8,0 -1,1 -1,1 -3,1l0 1c-3,0 -9,-1 -11,0 -4,2 -3,2 -9,2 -2,0 -4,0 -5,0 -3,2 0,1 -4,2 -4,1 -6,0 -10,0 -1,1 0,1 -1,1 0,0 0,0 0,1l-1 0c-4,0 -6,1 -10,1 0,3 0,2 -1,4 -1,1 0,0 0,2l-2 3c0,0 0,0 0,0 -1,3 -2,5 -3,8 0,2 -2,4 -2,6 0,2 0,2 -1,4 0,1 0,0 0,1 -1,3 -1,3 -1,6 0,3 -1,4 -1,6 -1,3 -1,2 -1,7 0,2 0,5 0,7 0,2 -1,2 -1,6 0,2 0,4 0,7 0,3 1,6 1,13 0,6 0,4 1,7 0,3 1,4 1,5 0,4 0,3 1,7 0,1 0,1 1,2 1,3 -1,1 2,7l0 2c1,5 4,7 4,11l3 5c0,3 1,3 2,5 1,2 1,2 2,4 0,1 0,1 1,2l3 4c0,1 0,1 1,3 1,1 0,0 1,1l2 3c0,0 0,0 0,0l14 17c1,1 0,1 1,1 1,1 0,1 1,1l2 2c1,1 0,1 0,1 1,0 1,1 2,1l0 1c2,2 9,8 12,9 1,1 4,4 6,5l6 4c1,1 1,0 2,1 1,0 1,1 2,1 1,1 0,0 1,1 2,0 2,1 3,2l2 0c0,0 0,0 0,0 1,1 0,1 2,2 2,1 2,0 4,1 0,1 0,1 1,1 1,0 2,0 3,1 1,0 1,0 2,1 1,1 3,1 5,2 0,0 0,0 0,0l1 0c2,1 0,1 4,1 2,0 1,0 2,1 0,0 0,0 0,0l1 1c0,0 0,0 1,0 2,1 4,0 8,2 0,1 -2,0 0,0 3,1 6,0 8,1 0,0 0,0 0,0l5 2c4,0 10,-1 14,0 3,1 12,0 14,0 5,0 11,0 16,0 2,-3 7,-2 10,-3 0,0 1,1 0,0 0,-1 0,1 0,0 4,0 2,-1 5,-2 2,0 3,0 4,0 0,0 0,0 0,0 0,0 0,0 0,0 0,0 0,-1 0,-1 0,0 1,0 1,0 0,0 0,0 0,0l2 -1c5,-1 2,1 6,-2 1,0 0,0 1,0 5,-1 4,-2 6,-2 0,-1 1,0 2,-1 0,0 1,-1 1,-1 2,-1 3,0 5,-2l3 -1c2,-1 0,-1 4,-3l1 0c1,-1 2,-1 6,-4 1,-1 2,-1 1,-2 2,1 3,-1 5,-2l10 -8c4,-3 7,-6 10,-9l8 -10c0,0 0,0 0,0 0,0 0,0 0,0 2,-2 5,-4 6,-7 0,-1 0,0 1,-1l10 -18c0,0 1,0 1,0l0 -1c2,-4 2,-3 3,-8 1,-1 1,-1 2,-3 0,-3 0,-2 2,-4l1 -4c0,-2 -1,-1 0,-2 1,-1 0,1 1,-1 0,-1 1,-4 1,-5 0,-2 1,-1 1,-3 0,-1 0,-2 0,-3l2 -6c2,-4 0,-5 1,-9 1,-3 0,-7 2,-13 0,-2 0,-4 0,-6 0,-1 0,-3 0,-4 0,-2 -1,-3 -1,-5 -1,-2 -1,-7 -1,-9 0,-1 0,0 0,0l-1 0c1,-2 1,-5 0,-7 0,0 -1,-1 -1,-1l0 -4c-1,-3 0,-4 -1,-6l-1 -3c-1,-5 -2,-4 -3,-9 -1,-3 -1,-2 -1,-3l-1 0c0,-2 0,-3 0,-5l-2 -3c0,-1 0,0 0,-1 0,0 -1,0 -1,-1l-15 -26c-1,-2 -3,-4 -5,-6l-7 -8c-1,0 -1,0 -2,0 -2,0 2,-1 -1,0 -1,1 0,1 -1,1 -8,2 -12,-1 -14,2 0,0 0,0 0,0z"/>
  <path class="fil0" d="M153 388c0,2 0,2 0,3 0,1 0,1 -1,1l-2 4c-2,2 -4,3 -6,4l-4 2c0,1 0,1 0,1 -1,0 0,0 -1,0l-11 8c-1,0 -1,0 -1,0 0,0 0,1 0,1l-4 2c-2,3 -2,2 -5,5l-11 11c-1,1 -1,0 -2,1l-4 4c0,0 0,0 0,0 -3,3 -5,5 -6,8 -1,1 -1,0 -1,1l-2 2c-1,1 -1,1 -1,1 -4,4 -5,7 -7,9 -1,1 0,0 -1,1l-7 11c0,0 -1,1 -1,1l-3 6c-1,1 -1,1 -1,2l-2 4c-1,1 -1,2 -1,3 -1,1 0,0 -1,1 -1,0 0,-1 -1,0 -1,2 -1,2 -1,4 -2,0 -1,2 -3,4 0,0 0,1 -1,2l-1 2c0,1 0,0 0,1 -1,1 -1,2 -1,4l-2 1c0,4 -2,4 -2,6 0,2 0,0 0,2l0 0c-1,0 -1,1 -1,1 -1,2 -1,0 -1,4 -1,3 -2,1 -2,6 0,4 -1,2 -1,1 0,2 -1,1 -1,3 -1,1 -1,2 -1,4 -1,2 1,-2 0,0 0,0 0,0 -1,1 -1,2 0,4 -1,5 -1,1 -1,2 -2,4 0,1 0,3 -1,4 0,0 0,0 0,0l-1 7c-1,2 -1,3 -1,4 0,2 -1,1 -1,1 -1,2 -1,8 -2,9l0 0c0,0 -1,0 -1,0l0 6c-1,3 0,-1 0,1 -1,2 0,1 -1,3 -2,4 -1,5 -1,9l-1 5c-1,1 -1,1 -1,2 0,2 0,5 -1,7 0,1 0,1 0,3 -2,0 -1,0 -2,1 0,2 -1,2 -2,3l-3 2c0,0 0,1 0,1l-4 0c0,1 0,-1 1,0 0,1 0,0 0,1 -3,0 -7,-1 -9,-2 0,0 0,0 0,-1l-3 -2c-1,-1 -1,-2 -2,-3 -1,-3 -1,-6 0,-8 0,-2 1,-2 1,-5 0,-1 0,-4 0,-5l1 -3c0,-3 1,-3 1,-6 0,-2 0,-4 0,-6 1,-2 0,2 1,-2 2,-6 -1,-3 3,-10l0 0c0,-2 0,-4 0,-5 0,-3 2,-2 3,-9 0,-2 0,-2 1,-4 0,0 0,-1 0,-1 1,-1 0,0 1,-1 0,-1 0,-2 0,-3 0,-2 2,-2 2,-5 0,-3 0,-4 2,-6 0,-7 2,-5 3,-7 0,-2 -1,-3 0,-4 1,-3 1,0 2,-2 0,-5 1,-3 2,-6 0,-2 0,-3 1,-4 1,-1 1,-2 2,-4 0,-2 1,-1 1,-2 1,-2 0,-2 3,-6l4 -10c1,-2 2,-2 3,-5l1 -3c1,-1 3,-3 3,-4 0,-1 0,-1 0,-2 1,0 1,0 1,0 0,0 0,0 0,0l1 -1c0,0 0,-1 1,-3 1,-1 1,-3 2,-4 2,-1 1,0 2,-2 0,-1 1,-2 2,-3 0,0 0,0 0,0l3 -5c0,0 0,0 0,0l2 -3c1,-1 -1,1 1,0l3 -4c0,-1 0,-2 1,-2l4 -4c0,0 0,-1 0,-1l1 -1c2,-2 3,-4 4,-6l3 -2c1,-1 0,-1 1,-2 1,0 1,-1 1,-1 2,-1 0,2 1,0 0,-1 -1,1 0,-1l4 -4c0,0 0,0 0,0l4 -4c0,0 0,0 0,0l2 -2c1,-1 0,0 1,-1l6 -5c1,-1 0,0 1,-1l9 -7c0,0 0,-1 1,-1l12 -9c1,0 0,0 1,0 1,-1 1,0 1,-1 1,-1 1,-1 2,-2 2,0 3,-1 4,-2 2,0 3,-1 4,-2 7,0 4,-2 8,0 1,0 2,0 3,0l1 1c2,2 1,1 3,3 0,0 1,0 1,0 0,0 0,0 0,0 0,0 0,0 0,1 2,1 2,4 2,6zm-153 227l163 0 -2 -2c0,-1 0,-1 -1,-1l-2 -4c0,0 0,0 0,0 0,0 -1,0 -1,0l-5 -7c-1,0 -1,-1 -1,-1l-9 -9c0,-1 0,-1 0,-1 0,0 0,0 0,0 0,0 0,0 0,0l-11 -13c-1,-1 -1,-2 -2,-3 -1,0 -1,0 -1,0l-1 -2c0,0 -1,-1 -2,-1l-2 -4c-1,-1 -1,-1 -2,-2l-12 -15c0,0 0,0 0,0l-2 -1c-1,-2 -1,-2 -2,-3 0,0 0,0 0,0l-4 -5c0,0 0,0 -1,-1l0 0c0,0 0,-1 0,-1l-1 0c0,0 0,0 0,0l-1 -1c0,-2 0,-1 -1,-3 -1,-1 0,0 -1,-1l-1 -1c0,0 0,0 0,0l-3 -5c-1,-3 1,-2 -2,-5 -1,-1 -1,-4 -2,-6l0 -1c-1,-1 -1,-1 -1,-3 -1,-3 0,-16 0,-20 0,-2 1,-3 2,-6l0 -4c2,-1 1,0 2,-1 1,-2 0,-4 1,-5 1,-3 0,0 2,-3 1,-1 0,0 0,0 1,-1 1,-1 2,-2 1,-2 0,-1 1,-2l1 -3c1,0 1,0 1,0 0,0 0,-1 1,-1 0,0 0,0 0,0l4 -4c0,0 0,0 0,0l3 -3c0,0 0,0 0,0l9 -8c0,0 0,0 0,0l6 -5c0,0 1,-1 1,-1l16 -12c1,0 1,0 1,0l1 0c0,-1 0,-1 0,-1l6 -2c2,-2 4,-1 6,-2 4,-2 10,-2 15,-2 3,0 6,0 9,1l3 0c2,1 0,1 2,1 1,1 1,0 3,1l7 3c0,0 1,1 1,1l2 1c1,0 1,0 1,0l6 4 10 10c1,1 0,1 1,2l6 6c2,3 3,4 5,6 1,2 3,4 5,6l11 13c0,0 0,0 0,0l7 8c0,0 0,1 0,1l5 5c0,1 1,1 1,1l9 11c0,0 0,1 0,1 0,0 0,0 0,0 0,0 1,0 1,0l13 16c0,0 1,0 1,0l1 3c0,0 0,0 0,0l5 6c0,0 0,0 0,0l1 1c1,1 0,0 1,2 1,0 1,0 2,1l6 6c2,3 2,4 5,7l0 0c1,2 1,1 2,2 1,2 0,1 1,2l0 -10c0,0 -1,1 -1,-1l-1 -28c0,1 0,-1 0,-2l0 -9c0,-3 0,-3 -1,-5 -1,-2 0,-7 -1,-10l0 -5c0,-1 0,-3 -1,-4 -1,-2 -1,-2 -1,-5 0,-9 -2,-9 -2,-14 0,-8 -2,-8 -2,-10 -1,-1 0,-2 -1,-3l-1 -6c-1,-2 -1,-5 -2,-7 0,-2 -1,-1 -1,-4l-2 -8c-1,-1 -2,-3 -2,-4l-2 -4c-1,-2 1,-1 -4,-10l-5 -8c-1,-2 0,-1 -1,-2 -1,-1 -1,-1 -1,-1 -1,-1 0,-1 -1,-2l0 0c-1,-1 -1,-1 -1,-1 -1,-1 -1,-1 -2,-1l-4 -4c0,-1 1,0 -1,-1 -3,-1 -2,0 -3,-2 -4,0 -7,0 -10,-1 -3,0 -7,0 -11,0 -3,0 -2,-1 -4,-1 -1,-1 -3,0 -5,-1 -7,0 -7,-1 -8,-2 -2,0 -4,1 -6,0 -1,0 -3,-2 -5,-2 0,0 -1,0 -2,0l-1 0c-1,-1 -1,-1 -1,-1l-2 -1c-2,-1 -3,0 -5,-1 -2,-1 -3,-1 -5,-1 0,0 0,0 0,0 -2,-1 -2,-2 -4,-2 -1,0 -2,-1 -2,-1l-1 -1c-2,-1 -3,-1 -4,-2 -2,-1 -3,0 -5,-2 -2,-1 -3,-1 -4,-2 -2,-1 0,-1 -2,-1l-3 -2c0,0 1,0 -1,0l-5 -3c-1,-1 -1,-1 -2,-2 -1,-1 -1,0 -2,-1 -2,-1 0,-1 -2,-1l-2 -2c0,0 0,-1 0,-1l-5 -2c-1,-1 -3,0 -4,1l-1 0c-1,1 -1,1 -2,1 -1,1 -1,1 -2,2l-1 1c-2,0 -1,0 -2,1l-3 2c0,0 0,0 -1,1l-4 2c0,1 0,1 0,1 -1,0 0,0 -1,0l-8 7c-2,1 -2,1 -3,2l-16 14c0,1 -1,1 -1,2 0,0 0,0 -1,0l-13 14c-1,1 -1,1 -1,2l-3 3c0,0 0,0 0,0 0,1 0,1 -1,1l-16 21c0,0 0,1 0,1 -2,2 -4,5 -5,7 0,1 0,1 0,1 -1,2 -1,1 -2,2 0,1 0,1 -1,2 0,1 0,0 -1,1l-2 3c-1,1 0,0 -1,2 -2,4 -2,3 -4,8l-2 3c0,1 0,1 0,2l-2 1c0,1 0,2 0,3 -1,1 -2,1 -2,2 0,1 0,2 -1,3 0,0 -1,1 -1,1 -1,1 -1,1 -1,2 0,2 0,1 -1,2 -1,1 0,2 -1,3 -1,2 -2,2 -2,3 -1,3 -2,5 -3,8 0,1 -1,2 -1,2 0,0 0,0 0,1l-1 1c-1,3 -1,2 -2,6 -1,2 -2,2 -2,3 0,2 -1,4 -2,6 -1,1 0,0 -1,2l-2 7c0,2 -1,3 -1,4 -1,1 -1,4 -3,7 0,2 0,3 0,5 -1,0 0,1 -1,0 -1,-1 1,-1 0,0 0,3 -1,2 -1,4 0,4 -1,3 -2,6 0,1 0,0 0,2 -1,2 0,2 -1,6 -2,4 0,4 -3,9 0,0 -1,2 -1,2 0,2 0,4 0,6 -1,2 -2,4 -2,5 0,2 0,5 0,7 0,1 0,1 -1,2 0,4 -1,4 -1,8 0,3 -1,6 -2,9 -1,2 -1,6 -1,9l0 9c-1,1 -1,0 -1,2z"/>
  <path class="fil0" d="M325 2c0,0 3,0 0,0 -3,0 -7,0 -10,0 -1,0 -2,0 -3,0 -2,1 -1,1 -4,2 -2,0 -1,0 -2,0 -3,1 -8,0 -11,1 -3,0 -2,1 -4,1 -1,0 -2,0 -3,0 -2,0 -1,1 -3,1 -3,0 -7,-1 -10,0 -3,0 0,0 -2,1 -1,0 -2,0 -3,0 -2,1 -1,1 -3,1 -2,0 -5,0 -6,0 -11,0 -3,1 -9,2 0,0 -1,0 -1,0 -3,0 0,0 -8,0 -3,0 -6,0 -7,1l-2 1c-3,0 -3,0 -5,1 -4,0 -9,-1 -12,0l-7 2c-2,0 -9,0 -11,0l0 0c-7,3 -14,1 -18,2 -2,1 -1,0 -1,1 -2,0 -6,1 -10,1 -2,0 -4,0 -6,0 -2,1 -2,1 -3,1l-3 1c0,0 0,0 0,0 -2,0 -4,1 -6,1l-8 0c-3,0 -6,2 -8,2 -6,1 -9,-1 -15,1 -1,1 -1,1 -3,1 -2,1 -3,1 -4,2 -2,3 -1,10 -1,13 0,9 3,12 3,23 0,3 0,2 0,3 1,2 1,3 1,4 7,0 6,0 11,-1 4,-2 10,0 14,-1l2 -1c5,-2 2,-1 8,-1l9 -1c0,0 0,0 0,0 0,0 0,0 0,0 0,0 0,-1 0,-1 3,-1 7,0 10,0 4,0 5,-1 8,-2 2,-1 7,0 10,0 1,0 1,-1 3,-1 2,0 6,0 7,1 2,2 2,1 4,4l0 0c0,1 1,1 1,2 0,1 1,1 1,2 0,1 0,2 0,4 0,3 -1,3 -1,6 -1,0 -2,0 -2,2 -1,0 0,0 -2,1 -2,1 -2,2 -5,2 -9,1 -2,-1 -12,2 0,0 0,1 -1,1 -3,1 -8,-1 -11,0 -1,0 0,1 -2,1 0,0 -1,0 -1,0 -1,1 0,-1 0,0 0,0 0,0 0,1 -3,0 -14,0 -16,1l-2 1c-4,1 -9,0 -13,1 -1,0 0,0 -2,0 -3,1 -1,2 -8,2 -8,0 -7,-1 -7,3 0,3 0,3 1,5 1,2 0,3 0,5 1,1 1,1 1,5 0,1 0,3 0,5 2,0 2,-1 4,-1 8,1 4,0 8,-1 7,-1 9,0 12,-1 1,0 1,-1 2,-1 7,-2 8,0 12,-1 2,-1 0,0 1,-1 6,-2 10,0 15,-2l2 -1c4,-2 9,1 13,-2 0,0 0,0 0,0 0,0 0,0 0,0 1,0 1,0 1,0l1 0c3,-1 8,0 11,-1l3 -1c3,-2 8,0 11,-2l2 0c6,-3 11,-1 14,-2 0,0 0,0 1,0 0,-1 0,-1 0,-1 3,-2 7,0 11,-1l4 -1c3,-2 5,-1 9,-1 2,0 2,-1 5,-1 0,-1 0,1 0,0 -1,-1 -1,0 -1,-1 4,0 9,1 12,0l4 -2c3,0 7,1 10,-1 2,-1 0,0 3,0l0 -1c0,0 -1,0 1,0 2,0 5,0 8,0 3,0 1,0 3,-1 4,-2 8,-1 12,-1 2,-1 0,0 1,-1l3 -1c2,-1 0,0 2,-1 3,0 6,1 9,0 2,0 1,0 3,-1 1,0 2,-1 3,-1 2,0 7,0 9,0 1,-1 -1,0 1,-1l3 -1c1,0 1,0 2,0 -2,-3 -1,-5 -1,-8 0,-1 -1,-1 -1,-2 0,-2 1,-5 0,-7l-1 -5c0,0 -1,2 -1,-2 0,-11 -2,-19 -2,-26 0,-5 -1,-4 -1,-9 0,-2 -1,-1 -1,-4 0,-5 -1,0 -1,-9 0,-3 0,-5 -1,-7 -3,-4 -3,-2 -7,-5 -1,0 -4,0 -4,0 -2,1 -3,2 -6,2z"/>
  <path class="fil0" d="M330 615l152 0c0,-1 2,-1 3,-2l1 -1c0,0 0,0 0,-1l5 -4c0,0 1,0 1,0l5 -5c0,0 0,0 1,0l9 -8c0,0 0,0 0,0l15 -12c0,-1 0,0 1,-1l3 -3c1,-1 0,0 1,-1l4 -3c0,0 0,0 0,0l0 -1c1,0 1,0 1,0l13 -11c1,-1 1,-1 1,-1l4 -3c3,-3 7,-6 10,-10 0,-1 0,-1 0,-1 0,0 0,0 0,0 0,0 0,0 0,0 0,0 0,0 1,-1 0,-2 0,-3 1,-4l1 -2c1,-8 3,-6 2,-13 0,-3 -1,-1 -1,-4l-1 -5c-1,-1 -2,-5 -5,-9l-7 -8c-1,-2 -1,-1 -1,-2 0,0 0,0 0,0l-12 -14c-1,0 0,0 -1,-1 -1,-2 -3,-3 -5,-4l-3 -2c-3,-1 -2,-1 -5,-1l0 0c1,-1 1,0 2,-1 -5,0 0,-1 -12,-1l0 -1c0,0 -1,0 -2,0 -2,0 1,0 -4,1 -1,0 -1,0 -2,0 -1,0 -4,1 -6,1l0 1c0,0 0,0 0,0 -2,0 -1,0 -2,1 0,0 0,0 0,0l-13 9c-1,0 0,0 -1,0l-7 7c0,0 -1,0 -1,0l-4 4c-1,0 -1,0 -1,0l0 1c0,0 0,0 0,0l-6 4c0,1 0,1 0,1 -1,0 -1,0 -2,1l-2 2c0,0 0,0 0,0l-1 1c0,0 0,0 0,0l-3 3c0,0 -1,0 -1,0l-1 1c0,0 0,0 -1,1l-6 5c-1,1 -1,1 -2,1 0,1 0,1 0,1l-1 1c0,0 0,0 0,0l-1 1c-1,1 -1,0 -2,1l-5 4c0,1 0,1 -1,1l-7 6c0,0 0,0 0,0 0,0 0,0 0,0 -1,0 0,0 -1,0l-12 11c-1,1 -1,0 -2,1l-2 3c-2,2 -5,2 -6,4l-2 2c0,0 0,0 0,0l-5 4c0,0 0,1 0,1 0,0 -1,0 -1,0l0 0c-1,1 -1,1 -1,1l-26 22c-3,2 -6,4 -8,7 -1,1 0,0 -2,1 0,0 0,0 -1,1 -1,1 0,0 -1,1l-4 3c-1,1 -1,1 -1,1l-3 3c-1,0 0,0 -1,0l-3 3c0,0 0,0 0,0 0,0 0,0 0,0 -2,2 -4,4 -6,5 0,0 0,0 0,0 -1,1 0,0 -1,1l-6 4c-1,2 -3,2 -4,2z"/>
  <path class="fil0" d="M195 615l129 0c-2,-1 -2,0 -5,-2l-8 -9c0,0 0,0 0,0 0,0 0,0 0,0l-1 -2c-1,-1 -2,-3 -4,-4l-4 -5c0,0 0,0 0,0l0 -1c0,0 -1,0 -1,0 0,0 0,0 0,0l-3 -4c0,0 0,0 0,-1l-6 -6c-2,-2 -5,-6 -7,-9 0,0 0,0 0,0l-16 -18c0,0 0,0 0,0 0,0 0,0 0,-1l-32 -37c-1,-2 -3,-3 -3,-3 0,-2 -3,-4 -4,-5l-2 -3c-2,-4 -7,-7 -9,-11l-10 -12c-2,-2 -6,-6 -8,-9l-7 -8c0,0 0,0 0,-1 0,0 -1,0 -1,0l-2 -3c-2,-2 -3,-3 -5,-4l-3 -2c-3,-2 -3,0 -5,-3 -3,0 -7,-1 -11,-1 -5,0 -6,1 -12,1 -2,3 -1,1 -4,3l-7 4c-1,1 0,1 0,1l-2 1c-1,1 -1,1 -2,1l-2 2c0,1 0,1 0,1l-1 1c-1,0 -2,1 -3,2 1,1 4,5 6,7l7 9c1,1 0,0 1,1 0,0 0,0 0,0 0,0 0,0 0,0 1,3 6,6 7,9 0,0 0,0 0,0l4 5c2,2 4,4 5,6 1,1 1,1 2,3l3 3c2,3 4,5 6,8 0,0 0,0 0,0l17 21c1,1 1,1 1,1 3,5 3,4 7,9l8 10c0,0 0,0 0,0l20 25c0,0 0,0 0,0l2 2c0,0 0,1 0,1 0,3 1,3 0,4 0,2 0,0 0,1 0,1 0,2 -1,3l0 2c0,0 0,1 -1,1l-6 5c-5,1 -2,0 -6,0 -2,-1 -3,-1 -5,-2l0 -1c0,0 -1,0 -1,0l-8 -9c0,0 0,-1 0,-1l-5 -5c0,0 0,0 0,0l0 -1c-1,-1 0,0 -1,-1l-12 -15c0,0 -1,-1 -1,-1 -1,-2 -3,-3 -4,-5l-9 -12c-1,-1 0,0 -1,-1l-3 -4c-1,-1 -1,0 -1,-1l-5 -6c0,0 0,0 0,0l-2 -2c-1,-1 -1,-1 -2,-2l0 -1c-2,-2 -2,-2 -3,-3 -1,-1 0,0 -1,-1l-5 -7c-1,-1 0,0 -1,-1l-10 -13c0,0 -1,0 -1,-1l-15 -19c0,0 0,0 0,0l-2 -2c-2,-4 -2,-1 -2,0 -1,1 -3,3 -3,4l-2 8c0,2 0,5 0,7l1 6c1,1 -1,1 1,0 0,0 -1,0 0,0 0,3 1,5 2,7l1 1c0,0 0,0 0,0l3 4c0,0 0,0 0,0l25 30c1,1 1,1 1,2l18 20c0,1 0,1 0,1l2 1c1,1 0,1 1,2l9 11c0,0 0,0 0,0l6 7c0,0 1,1 1,1l1 1c0,0 0,0 0,0l7 9c1,1 5,5 5,6z"/>
  <path class="fil0" d="M510 411c4,2 -1,0 -3,2 0,0 0,0 0,0 -3,2 0,-1 -4,2 -1,1 0,1 -1,1l-5 4c0,0 0,0 0,0l-1 0c0,0 0,0 0,1 0,0 -1,0 -1,0l-6 5c0,0 0,0 0,0l-4 4c0,0 0,0 -1,0l-10 10c-2,1 -3,2 -4,3 -4,3 -7,6 -10,8l-15 13c0,0 0,1 0,1l-9 6c0,1 0,1 0,1 -1,1 -1,1 -2,1 0,0 0,0 0,0l-2 3c-2,1 -1,0 -2,1l-6 5c0,1 0,1 0,1l-7 5c-1,1 0,1 -2,2 -1,0 0,-1 -1,1l-13 11c0,0 -1,0 -1,1l-1 1c0,0 -1,1 -1,1l-6 5c0,0 0,0 -1,0l0 1c0,0 0,0 0,0 0,0 0,0 0,0l-8 7c-2,1 -4,3 -6,4 -1,2 -1,2 -2,3l-10 8c0,0 0,0 0,0l-10 8c-1,1 -2,3 -4,4 -1,1 -1,0 -2,1 0,1 0,1 -1,1 0,1 0,1 -1,1l-5 5c0,0 0,0 0,0 -1,0 -1,0 -1,1l-6 5c-1,0 0,0 -1,0 0,0 0,0 0,1 -3,1 -6,4 -8,7l0 12c0,3 0,1 -1,3 2,2 2,3 3,5l7 -6c0,0 0,0 0,0l2 -1c0,0 0,-1 0,-1 1,0 1,0 1,-1 1,0 1,0 1,0 0,0 1,0 1,-1l2 -2c0,0 0,0 0,0l2 -2c1,0 0,1 1,0l12 -10c0,0 0,-1 0,-1 1,0 1,0 2,-1l10 -8c0,0 0,0 0,-1 0,0 0,0 0,0l3 -2c1,-1 1,0 2,-1 1,-1 0,-1 1,-2 0,0 0,0 0,0l2 -2c0,0 0,0 0,0l7 -5c1,-1 1,-1 1,-1l4 -3c0,0 0,0 0,0l13 -11c0,0 0,0 0,0 0,0 0,-1 0,-1l7 -5c0,-1 0,0 0,0l3 -3c0,0 1,0 1,0l2 -2c0,0 0,0 0,0l5 -4c1,-2 -1,1 0,-1l4 -3c1,0 1,0 2,-1 0,0 0,0 0,0l2 -2c0,0 0,-1 0,-1l11 -8c0,0 0,0 0,0l20 -18c0,0 0,0 0,0l6 -4c0,0 0,0 0,-1l14 -11c0,0 0,0 1,0l4 -3c2,-2 4,-2 6,-3l6 -2c2,-2 3,-1 5,-2 1,0 1,0 1,0l0 0c1,0 2,0 3,0 3,0 3,-2 9,-1 3,0 3,1 5,1 1,0 4,0 5,0 0,0 0,0 -1,0 0,1 0,0 -1,1 10,0 3,0 12,2 1,0 2,1 3,2l11 6 7 7c0,0 0,0 0,0l8 9c1,1 0,0 1,1l2 3c1,0 1,1 1,1 2,-1 1,-1 2,-2 0,-1 0,-1 1,-1 0,-2 0,-1 0,-2 0,-1 0,0 1,-1 0,-4 1,-3 1,-5 0,-2 0,-15 0,-16 -1,-2 0,0 -1,-1 -1,-2 -1,-4 -2,-5l-20 -25c-1,-1 -2,-2 -3,-3l-3 -4c-1,0 -1,0 -1,0 0,0 -1,-1 -1,-1 -1,-1 -2,-2 -4,-3l-2 -1c-1,0 -2,0 -3,0 0,0 -1,0 1,-1 0,0 -1,0 -2,0l-1 0c-3,-2 0,-1 -9,-1 -1,0 -5,-1 -6,0 -2,0 -1,0 -2,1l-3 0z"/>
 </g>
</svg>
