<svg xmlns="http://www.w3.org/2000/svg" viewBox="0 0 15.96 21.4"><defs><style>.cls-1{fill:#3d3d3d;}</style></defs><title>Asset 10</title><g id="Layer_2" data-name="Layer 2"><g id="Layer_1-2" data-name="Layer 1"><g id="Group_94" data-name="Group 94"><g id="Group_93" data-name="Group 93"><g id="noun_Log_Out_4367791" data-name="noun Log Out 4367791"><path id="Path_94" data-name="Path 94" class="cls-1" d="M7.45.41A2.15,2.15,0,0,0,5.5.11l-4,1.33A2.19,2.19,0,0,0,0,3.52V17.88A2.17,2.17,0,0,0,1.5,20l4,1.32a2.19,2.19,0,0,0,2.76-1.4,2,2,0,0,0,.1-.68v-17A2.17,2.17,0,0,0,7.45.41Z"/><path id="Path_95" data-name="Path 95" class="cls-1" d="M9.12,11.28v7.93a2.41,2.41,0,0,1,0,.38h4.74a2.1,2.1,0,0,0,2.1-2.1h0V3.92a2.1,2.1,0,0,0-2.1-2.1H9.1a2.41,2.41,0,0,1,0,.38v7.93h3.41L10.94,8.55l.81-.81L14.3,10.3a.58.58,0,0,1,0,.81l-2.54,2.57L11,12.87l1.57-1.59Z"/></g></g></g></g></g></svg>