<svg xmlns="http://www.w3.org/2000/svg" viewBox="0 0 21.22 15.41"><defs><style>.cls-1{fill:#3d3d3d;}</style></defs><title>Asset 6</title><g id="Layer_2" data-name="Layer 2"><g id="Layer_1-2" data-name="Layer 1"><g id="noun_payment_method_3592846" data-name="noun payment method 3592846"><path id="Path_73" data-name="Path 73" class="cls-1" d="M4.44,3.91H19.13a1.05,1.05,0,0,1,1.07,1v8.38a1,1,0,0,1-.94,1.06H4.44a1,1,0,0,1-1.06-.94V5a1,1,0,0,1,.94-1.06h.12ZM1.89,1.07H17a.85.85,0,0,1,.86.82h0v1H4.44A2.08,2.08,0,0,0,2.36,5h0v6.53H1.89A.85.85,0,0,1,1,10.7V1.88A.85.85,0,0,1,1.82,1h0Zm0-1A1.89,1.89,0,0,0,0,1.88v8.76a1.91,1.91,0,0,0,1.89,1.89h.47v.8a2.1,2.1,0,0,0,2.08,2.08H19.13a2.11,2.11,0,0,0,2.09-2.08V5a2.09,2.09,0,0,0-2.09-2.08h-.27v-1A1.9,1.9,0,0,0,17,0Z"/><path id="Path_74" data-name="Path 74" class="cls-1" d="M4.92,11.91a.51.51,0,0,0-.53.49h0a.5.5,0,0,0,.47.53h2a.51.51,0,0,0,.53-.49h0a.51.51,0,0,0-.49-.53h-2Z"/><path id="Path_75" data-name="Path 75" class="cls-1" d="M8.86,11.91a.51.51,0,0,0-.53.49h0a.51.51,0,0,0,.49.53h2a.5.5,0,0,0,.4-.6.51.51,0,0,0-.4-.4h-2Z"/><path id="Path_76" data-name="Path 76" class="cls-1" d="M12.8,11.91a.51.51,0,0,0-.53.49h0a.5.5,0,0,0,.47.53h2a.51.51,0,0,0,.53-.49h0a.51.51,0,0,0-.49-.53h-2Z"/><path id="Path_77" data-name="Path 77" class="cls-1" d="M16.74,11.91a.51.51,0,0,0-.53.49h0a.51.51,0,0,0,.49.53h2a.5.5,0,0,0,.4-.6.51.51,0,0,0-.4-.4h-2Z"/><path id="Path_78" data-name="Path 78" class="cls-1" d="M5.64,6.25H7.11a.21.21,0,0,1,.22.2h0V7.93a.21.21,0,0,1-.19.22H5.64A.22.22,0,0,1,5.42,8V6.47a.21.21,0,0,1,.2-.22h0Zm0-1A1.24,1.24,0,0,0,4.41,6.49V8A1.24,1.24,0,0,0,5.64,9.19H7.12A1.24,1.24,0,0,0,8.35,8V6.47A1.23,1.23,0,0,0,7.13,5.23h0Z"/></g></g></g></svg>