<svg xmlns="http://www.w3.org/2000/svg" viewBox="0 0 15.53 21.72"><defs><style>.cls-1{fill:#3d3d3d;}</style></defs><title>Asset 5</title><g id="Layer_2" data-name="Layer 2"><g id="Layer_1-2" data-name="Layer 1"><g id="noun_promo_4400468" data-name="noun promo 4400468"><g id="Group_79" data-name="Group 79"><g id="Group_78" data-name="Group 78"><path id="Path_69" data-name="Path 69" class="cls-1" d="M6.45,11.67a2.05,2.05,0,1,0-2.9,0,2,2,0,0,0,1.46.6A2,2,0,0,0,6.45,11.67ZM4.33,10.23a.68.68,0,1,1,1.36,0,.72.72,0,0,1-.2.48h0a.69.69,0,0,1-1,0l0,0A.66.66,0,0,1,4.33,10.23Z"/><path id="Path_70" data-name="Path 70" class="cls-1" d="M10.53,13.69A2,2,0,1,0,12,17.18h0a2,2,0,0,0-1.45-3.49ZM11,16.21h0a.69.69,0,0,1-1,0l0,0a.68.68,0,0,1,0-1l0,0a.72.72,0,0,1,1,0,.7.7,0,0,1,0,1Z"/><path id="Path_71" data-name="Path 71" class="cls-1" d="M10.91,9.83a.68.68,0,0,0-1,0l0,0h0L4.67,15.1a.69.69,0,0,0,0,1l0,0a.68.68,0,0,0,1,.06l0-.06L11,10.82A.66.66,0,0,0,11,9.88L11,9.82Z"/><path id="Path_72" data-name="Path 72" class="cls-1" d="M14.26,4.07,9.39.52a2.81,2.81,0,0,0-3.25,0L1.26,4.07A3.12,3.12,0,0,0,0,6.6V18.43a3.29,3.29,0,0,0,3.29,3.29h8.94a3.27,3.27,0,0,0,3.3-3.25V6.6A3.09,3.09,0,0,0,14.26,4.07Zm-.11,14.3a1.92,1.92,0,0,1-1.92,1.93H3.29a1.93,1.93,0,0,1-1.92-1.92V6.6a1.7,1.7,0,0,1,.7-1.37L7,1.6a1.38,1.38,0,0,1,1.64,0l4.87,3.55a1.7,1.7,0,0,1,.7,1.37V18.37Z"/><circle id="Ellipse_23" data-name="Ellipse 23" class="cls-1" cx="7.79" cy="3.91" r="0.72"/></g></g></g></g></g></svg>