<svg xmlns="http://www.w3.org/2000/svg" viewBox="0 0 18.82 13.29"><defs><style>.cls-1{fill:#3d3d3d;}</style></defs><title>Asset 4</title><g id="Layer_2" data-name="Layer 2"><g id="Layer_1-2" data-name="Layer 1"><g id="noun_voucher_4185916" data-name="noun voucher 4185916"><g id="noun_voucher_1162069" data-name="noun voucher 1162069"><g id="Group_77" data-name="Group 77"><path id="Path_62" data-name="Path 62" class="cls-1" d="M18,0H.82A.85.85,0,0,0,0,.88H0V4.17A.91.91,0,0,0,.57,5a1.82,1.82,0,0,1,.9,2.41,1.85,1.85,0,0,1-.9.91A.89.89,0,0,0,0,9.17v3.24a.85.85,0,0,0,.82.88H18a.85.85,0,0,0,.82-.88h0V.88A.85.85,0,0,0,18,0Zm0,12.36H6.13v-.89A.4.4,0,0,0,5.76,11a.41.41,0,0,0-.45.37h0v1H.81V9.17h0A2.73,2.73,0,0,0,2.17,5.56,2.79,2.79,0,0,0,.85,4.17h0V.88h4.5v.88a.42.42,0,0,0,.38.45.41.41,0,0,0,.44-.38h0V.88H18Z"/><path id="Path_63" data-name="Path 63" class="cls-1" d="M5.74,8.38a.46.46,0,0,0-.45.44h0v.89a.45.45,0,0,0,.89,0V8.82A.44.44,0,0,0,5.74,8.38Z"/><path id="Path_64" data-name="Path 64" class="cls-1" d="M5.74,5.74a.44.44,0,0,0-.45.43h0v.88a.45.45,0,0,0,.89,0V6.17a.44.44,0,0,0-.44-.44Z"/><path id="Path_65" data-name="Path 65" class="cls-1" d="M5.74,3.09a.44.44,0,0,0-.45.43h0v.88a.45.45,0,0,0,.89,0h0V3.53A.44.44,0,0,0,5.74,3.09Z"/><path id="Path_66" data-name="Path 66" class="cls-1" d="M10.81,6a1.55,1.55,0,1,0,.25-3.09,1,1,0,0,0-.25,0A1.54,1.54,0,0,0,9.27,4.41h0A1.56,1.56,0,0,0,10.81,6Zm0-2.21a.66.66,0,1,1-.66.66h0A.68.68,0,0,1,10.81,3.75Z"/><path id="Path_67" data-name="Path 67" class="cls-1" d="M13.83,7.28a1.55,1.55,0,1,0,1.55,1.55h0a1.54,1.54,0,0,0-1.53-1.55Zm0,2.21a.67.67,0,1,1,.67-.67h0A.66.66,0,0,1,13.83,9.49Z"/><path id="Path_68" data-name="Path 68" class="cls-1" d="M9.22,10.27a.45.45,0,0,0,.62-.09h0l5.51-6.62a.44.44,0,0,0,0-.62.45.45,0,0,0-.63.06L9.16,9.65a.44.44,0,0,0,0,.61Z"/></g></g></g></g></g></svg>